<?xml version="1.0" encoding="UTF-8"?>
<svg width="64px" height="64px" viewBox="0 0 64 64" version="1.1" xmlns="http://www.w3.org/2000/svg" xmlns:xlink="http://www.w3.org/1999/xlink">
    <!-- Generator: sketchtool 59 (101010) - https://sketch.com -->
    <title>8F6C4130-44FA-4556-85BB-7B0072A6C4F5</title>
    <desc>Created with sketchtool.</desc>
    <g id="Diseño-Desktop" stroke="none" stroke-width="1" fill="none" fill-rule="evenodd">
        <g id="18.Alertas" transform="translate(-160.000000, -576.000000)">
            <g id="Alerta-corta-1-link" transform="translate(129.000000, 568.000000)">
                <g id="Icons-/-Alerta-desktop" transform="translate(31.000000, 8.000000)">
                    <g id="Icono-alerta" transform="translate(1.000000, 1.000000)">
                        <path d="M40.4512286,60.3281287 C24.3840072,65.4156278 7.23514482,56.5151671 2.14764503,40.4479479 C-2.93985476,24.3807287 5.96060719,7.23305198 22.029012,2.14555287 C38.0950499,-2.94194624 55.2439123,5.95851452 60.3302287,22.0245503 C65.4177285,38.0929529 56.5172665,55.2406296 40.4512286,60.3281287" id="Fill-white" fill="#FFFFFF"></path>
                        <path d="M49.3786123,7.36922462 C49.3786123,6.89802462 49.7601508,6.51648615 50.2313508,6.51648615 C50.7015969,6.51648615 51.0831354,6.89802462 51.0831354,7.36922462 C51.0831354,7.84042462 50.7015969,8.22196308 50.2313508,8.22196308 C49.7601508,8.22196308 49.3786123,7.84042462 49.3786123,7.36922462" id="Fill-3" fill="#333333"></path>
                        <path d="M38.6641538,54.6847631 C25.7137846,58.7853477 11.8916,51.6114708 7.79101538,38.6611015 C3.69043077,25.7107323 10.8643077,11.8895015 23.8156308,7.78891692 C36.7650462,3.68833231 50.5872308,10.8622092 54.6868615,23.8116246 C58.7874462,36.7629477 51.6135692,50.5841785 38.6641538,54.6847631" id="Fill-5" fill-opacity="0.15" fill="#333333"></path>
                        <path d="M31.2401785,15.8882154 C29.9143323,15.8882154 28.8355323,16.9670154 28.8355323,18.2928615 L28.8355323,34.5473538 C28.8355323,35.8732 29.9143323,36.952 31.2401785,36.952 C32.5650708,36.952 33.6438708,35.8732 33.6438708,34.5473538 L33.6438708,18.2928615 C33.6438708,16.9670154 32.5650708,15.8882154 31.2401785,15.8882154" id="Fill-7" fill="#FFFFFF"></path>
                        <path d="M31.2401785,15.8882154 C29.9143323,15.8882154 28.8355323,16.9670154 28.8355323,18.2928615 L28.8355323,34.5473538 C28.8355323,35.8732 29.9143323,36.952 31.2401785,36.952 C32.5650708,36.952 33.6438708,35.8732 33.6438708,34.5473538 L33.6438708,18.2928615 C33.6438708,16.9670154 32.5650708,15.8882154 31.2401785,15.8882154 Z" id="Stroke-9" stroke="#303030" stroke-width="1.5"></path>
                        <path d="M31.2266338,41.7780395 C29.9007877,41.7857108 28.8277108,42.86928 28.8353011,44.1951262 C28.8429723,45.5200185 29.9274954,46.5921415 31.2533415,46.5854956 C32.5782338,46.5778338 33.6513108,45.4933108 33.6437204,44.1674646 C33.6360492,42.8425723 32.5515262,41.7704492 31.2266338,41.7780395" id="Fill-11" fill="#FFFFFF"></path>
                        <path d="M31.2266338,41.7780395 C29.9007877,41.7857108 28.8277108,42.86928 28.8353011,44.1951262 C28.8429723,45.5200185 29.9274954,46.5921415 31.2533415,46.5854956 C32.5782338,46.5778338 33.6513108,45.4933108 33.6437204,44.1674646 C33.6360492,42.8425723 32.5515262,41.7704492 31.2266338,41.7780395 Z" id="Stroke-13" stroke="#303030" stroke-width="1.5"></path>
                        <path d="M54.1943908,11.1222277 C56.8937754,14.2002892 59.0151292,17.8745046 60.3295292,22.0265969 C65.4173446,38.0941354 56.5170062,55.2423815 40.4504215,60.3292431 C24.3828831,65.4170585 7.23463692,56.51672 2.14682154,40.4491815 C-2.94004,24.3825969 5.96029846,7.23435077 22.0278369,2.14653538 C29.9638369,-0.365895385 38.1630985,0.533581538 45.0431908,4.02465846" id="Stroke-15" stroke="#303030" stroke-width="1.5" stroke-linecap="round"></path>
                    </g>
                </g>
            </g>
        </g>
    </g>
</svg>