<?xml version="1.0" encoding="UTF-8"?>
<svg width="64px" height="64px" viewBox="0 0 64 64" version="1.1" xmlns="http://www.w3.org/2000/svg" xmlns:xlink="http://www.w3.org/1999/xlink">
    <title>Group 18</title>
    <g id="Notificaciones-Push---ML-MP" stroke="none" stroke-width="1" fill="none" fill-rule="evenodd">
        <g id="Group-18">
            <g id="Group-2-Copy" transform="translate(8.400000, 8.240000)">
                <path d="M28.6143435,5.42101745 L40.4394408,25.5520204 C40.5060769,25.6679546 40.5190261,25.8000723 40.4866764,25.9197965 C40.4616745,26.0123265 40.4095847,26.0976275 40.333753,26.1624238 L40.333753,26.1624238 L7.7462649,35.4387364 C7.63905556,35.4690984 7.5283004,35.4609389 7.43048667,35.4210889 C7.33288972,35.3813272 7.2481133,35.3099518 7.19263291,35.2132275 L7.19263291,35.2132275 L3.91210469,29.4969423 C3.85659147,29.4001608 3.83746807,29.2907077 3.85241051,29.1861106 C3.86729104,29.0819469 3.91599057,28.9826201 3.99648527,28.9052696 L3.99648527,28.9052696 L28.2696031,5.55632966 C28.3659136,5.46356298 28.490536,5.41860316 28.6143435,5.42101745 L28.6143435,5.42101745 Z" id="Stroke-5" stroke="#FFFFFF" stroke-width="2" fill="#FFE600"></path>
                <path d="M8.33236281,23.3469246 C11.4090715,20.3873589 17.8235744,14.2170827 27.5758715,4.836096 C28.1672315,4.266496 29.1067515,4.285696 29.6763515,4.877056 C29.7595515,4.964096 29.8337915,5.061376 29.8926715,5.167616 L41.3064315,25.053696 C41.7147515,25.764096 41.4689915,26.672896 40.7585915,27.081216 C40.6523515,27.141376 40.5397115,27.188736 40.4232315,27.222016 L8.0187515,36.400896 C7.3633915,36.586496 6.6645115,36.302336 6.3253115,35.710976 L3.0446715,29.994496 C2.7054715,29.403136 2.8117115,28.656896 3.3032315,28.184576 C4.71748009,26.8241737 5.77816653,25.803872 6.48529083,25.1236709" id="Path" stroke="#333333" stroke-width="1.2"></path>
                <path d="M0.758207497,31.9296 L3.3130875,30.46272 L6.0574075,35.24224 L3.4807675,36.72192 C2.7690875,37.12896 1.8615675,36.88448 1.4532475,36.1728 L0.200127497,33.98912 C-0.214592503,33.26592 0.0362874968,32.34432 0.758207497,31.9296" id="Fill-7" fill="#FFFFFF"></path>
                <path d="M0.758207497,31.9296 L3.3130875,30.46272 L6.0574075,35.24224 L3.4807675,36.72192 C2.7690875,37.12896 1.8615675,36.88448 1.4532475,36.1728 L0.200127497,33.98912 C-0.214592503,33.26592 0.0362874968,32.34432 0.758207497,31.9296 Z" id="Stroke-11" stroke="#333333" stroke-width="1.2"></path>
                <path d="M32.1557115,9.109632 L32.1557115,9.109632 L38.9653115,20.975232 C40.8571515,19.985792 41.5867515,17.651072 40.5985915,15.760512 C40.5742715,15.715712 40.5512315,15.670912 40.5256315,15.627392 L37.7160315,10.732672 C36.5985915,8.785792 34.1448315,8.070272 32.1557115,9.109632" id="Fill-13" fill="#FFFFFF"></path>
                <path d="M32.1557115,9.109632 L32.1557115,9.109632 L38.9653115,20.975232 C40.8571515,19.985792 41.5867515,17.651072 40.5985915,15.760512 C40.5742715,15.715712 40.5512315,15.670912 40.5256315,15.627392 L37.7160315,10.732672 C36.5985915,8.785792 34.1448315,8.070272 32.1557115,9.109632 Z" id="Stroke-17" stroke="#333333" stroke-width="1.2"></path>
                <path d="M9.8482555,35.882752 L21.6319355,32.544512 L25.7816955,39.515392 C26.2015355,40.220672 25.9711355,41.132032 25.2658555,41.551872 C25.1544955,41.617152 25.0354555,41.669632 24.9112955,41.704192 L16.0856955,44.204032 C15.4380155,44.388352 14.7493755,44.113152 14.4050555,43.535872 L9.8482555,35.882752 Z" id="Fill-19" fill="#FFFFFF"></path>
                <path d="M9.8482555,35.882752 L21.6319355,32.544512 L25.7816955,39.515392 C26.2015355,40.220672 25.9711355,41.132032 25.2658555,41.551872 C25.1544955,41.617152 25.0354555,41.669632 24.9112955,41.704192 L16.0856955,44.204032 C15.4380155,44.388352 14.7493755,44.113152 14.4050555,43.535872 L9.8482555,35.882752 Z" id="Stroke-23" stroke="#333333" stroke-width="1.2"></path>
                <line x1="45.6757115" y1="19.602048" x2="49.9765115" y2="20.765568" id="Stroke-25" stroke="#333333" stroke-width="1.2"></line>
                <line x1="42.0407675" y1="11.414016" x2="49.7694075" y2="6.978816" id="Stroke-27" stroke="#333333" stroke-width="1.2"></line>
                <line x1="36.8943995" y1="4.3008" x2="38.0579195" y2="3.70619091e-13" id="Stroke-29" stroke="#333333" stroke-width="1.2"></line>
            </g>
            <rect id="Rectangle" x="0" y="0" width="64" height="64"></rect>
        </g>
    </g>
</svg>