<?xml version="1.0" encoding="utf-8"?>
<!-- Generator: Adobe Illustrator 23.0.4, SVG Export Plug-In . SVG Version: 6.00 Build 0)  -->
<svg version="1.1" id="Layer_1" xmlns="http://www.w3.org/2000/svg" xmlns:xlink="http://www.w3.org/1999/xlink" x="0px" y="0px"
	 viewBox="0 0 34 68" style="enable-background:new 0 0 34 68;" xml:space="preserve">
<style type="text/css">
	.st0{filter:url(#Adobe_OpacityMaskFilter);}
	.st1{fill-rule:evenodd;clip-rule:evenodd;fill:#FFFFFF;}
	.st2{mask:url(#mask-2_1_);}
	.st3{filter:url(#filter-4);}
	.st4{fill-rule:evenodd;clip-rule:evenodd;}
	.st5{fill:#3483FA;}
</style>
<filter  filterUnits="objectBoundingBox" height="110.9%" id="filter-4" width="121.9%" x="-10.9%" y="-3.9%">
	<feOffset  dx="0" dy="1" in="SourceAlpha" result="shadowOffsetOuter1"></feOffset>
	<feGaussianBlur  in="shadowOffsetOuter1" result="shadowBlurOuter1" stdDeviation="1"></feGaussianBlur>
	<feColorMatrix  in="shadowBlurOuter1" type="matrix" values="0 0 0 0 0   0 0 0 0 0   0 0 0 0 0  0 0 0 0.12 0"></feColorMatrix>
</filter>
<title>RIGHT</title>
<desc>Created with Sketch.</desc>
<g id="Diseño-Desktop">
	<g transform="translate(-1404.000000, -201.000000)">
		<g id="RIGHT" transform="translate(1401.000000, 196.000000)">
			<g>
				<g id="Mask">
				</g>
				<defs>
					<filter id="Adobe_OpacityMaskFilter" filterUnits="userSpaceOnUse" x="1.5" y="3.5" width="39" height="71">
						<feColorMatrix  type="matrix" values="1 0 0 0 0  0 1 0 0 0  0 0 1 0 0  0 0 0 1 0"/>
					</filter>
				</defs>
				<mask maskUnits="userSpaceOnUse" x="1.5" y="3.5" width="39" height="71" id="mask-2_1_">
					<g class="st0">
						<rect id="path-1_1_" class="st1" width="37" height="76"/>
					</g>
				</mask>
				<g transform="translate(21.000000, 38.000000) scale(-1, 1) translate(-21.000000, -38.000000) " class="st2">
					<g class="st3">
						<path id="path-3_1_" class="st4" d="M5,70c17.7,0,32-14.3,32-32S22.7,6,5,6"/>
					</g>
					<g>
						<path class="st1" d="M5,70c17.7,0,32-14.3,32-32S22.7,6,5,6"/>
					</g>
				</g>
			</g>
			<g transform="translate(14.000000, 30.000000)">
				<g>
					<polygon class="st5" points="10.8,8 4.8,14 5.9,15.1 12.9,8 5.9,0.9 4.8,2 					"/>
				</g>
			</g>
		</g>
	</g>
</g>
</svg>
