<svg id="Layer_1" data-name="Layer 1" xmlns="http://www.w3.org/2000/svg" viewBox="0 0 80 80"><defs><style>.cls-1,.cls-2,.cls-4{fill:none;}.cls-2{stroke:#3483fa;}.cls-2,.cls-4{stroke-linecap:round;stroke-linejoin:round;stroke-width:2px;}.cls-3{fill:#3483fa;}.cls-4{stroke:#333;opacity:0.1;isolation:isolate;}</style></defs><title>group-6</title><path class="cls-1" d="M-13-4H67V76H-13Z" transform="translate(13 4)"/><path class="cls-1" d="M1.19,1.21h52.4V70.05H1.19Z" transform="translate(13 4)"/><path class="cls-2" d="M34.86,69.06H1.19V1.21H53.58V69.06H44.2" transform="translate(13 4)"/><path class="cls-3" d="M34.65,25.09h2v2h-2Zm-17.06,0h2v2h-2Zm0,18.07h2v2h-2ZM10.79,24.9V18.29h6.62v1.59h-5v5Zm31.07,0v-5h-5V18.29h6.62V24.9ZM10.79,52V45.35h1.6v5h5V52Zm26.05,0V50.37h5v-5h1.6V52Z" transform="translate(13 4)"/><path class="cls-3" d="M30.84,30.9V21.28h9.63V30.9Zm1.6-1.59h6.44V22.87H32.44Z" transform="translate(13 4)"/><path class="cls-3" d="M33.86,24.29h3.6v3.6h-3.6ZM13.78,30.9V21.28h9.63V30.9Zm1.59-1.59h6.44V22.87H15.37Z" transform="translate(13 4)"/><path class="cls-3" d="M16.79,24.29h3.6v3.6h-3.6ZM13.78,49V39.35h9.63V49Zm1.59-1.59h6.44V40.94H15.37Z" transform="translate(13 4)"/><path class="cls-3" d="M16.79,42.36h3.6V46h-3.6ZM34.86,49V45h-4v-1.6h5.62v4h2.42V42h-6v-1.6h7.62V49Zm-21.08-11V32.32h3.6v1.59h-2v2.43h2v1.59Zm11,11V47.38h3V45h-3V39.35h3.6v1.59h-2v2.42h3V49Zm6-1.59h1.6V49h-1.6Zm2-10h1.6v1.6h-1.6Zm6,0h1.6v1.6h-1.6Zm-3,0h1.6v1.6h-1.6Z" transform="translate(13 4)"/><path class="cls-3" d="M29.84,40.94V32.32h2.6v2h2.42v-2h1.6v2h2.42v-2h1.59v3.6h-9v5Zm-5-19.66h4.61v1.6H24.82Zm-5,16.65V36.34h2V33.91h-2V32.32h3.61v4h2.41v-4h1.6v4h1v1.59Zm-2-3.6h1.6v1.6h-1.6Zm7-3.43V29.31h2V25.88h-2V24.29h4.61v1.59h-1v3.43h1V30.9Z" transform="translate(13 4)"/><path class="cls-4" d="M10.32,65H5.44V59.87m39-54.61h4.89v5.13" transform="translate(13 4)"/><circle class="cls-3" cx="52.62" cy="73.06" r="1.1"/></svg>