<svg xmlns="http://www.w3.org/2000/svg" width="21" height="16" viewBox="0 0 21 16">
    <path fill-opacity=".8" d="M10.476 15.001h-.5l-.022-.004h-.176l-.002-.032-.016-.002c-2.95-1.095-5.783-.963-8.54.398l-.318.162L0 16V2.107l2.448-.813-.01-1.2.569-.045C6.45-.22 8.977.624 10.5 2.605 12.024.625 14.55-.222 17.993.05l.568.045-.009 1.2L21 2.107V16l-.902-.477-.317-.162c-2.758-1.36-5.59-1.493-8.54-.398l-.017.002-.002.032h-.176l-.022.004h-.5v-.004h-.048v.004zM2.46 2.553l-1.237.411v11.071c2.633-1.153 5.356-1.31 8.141-.47-.787-1.165-2.718-1.783-5.918-1.819H2.44l.022-3.913c.006-1.913.005-3.672-.003-5.28zm16.082 0c-.008 1.608-.01 3.367-.003 5.28l.022 3.914h-1.005c-3.2.035-5.13.653-5.918 1.818 2.785-.84 5.508-.683 8.14.47V2.965zM3.671 1.207l.016 2.873c.002 1.044.002 2.144-.001 3.303l-.015 3.17c2.854.06 4.911.6 6.107 1.642v-8.51c-1.141-1.768-3.148-2.6-6.106-2.478zm13.657 0c-2.958-.122-4.965.71-6.106 2.477v8.51c1.196-1.04 3.253-1.581 6.107-1.64l-.015-3.171c-.003-1.159-.003-2.26 0-3.303z"/>
</svg>
