<?xml version="1.0" encoding="UTF-8"?>
<svg width="20px" height="20px" viewBox="0 0 20 20" version="1.1" xmlns="http://www.w3.org/2000/svg" xmlns:xlink="http://www.w3.org/1999/xlink">
    <!-- Generator: sketchtool 59 (101010) - https://sketch.com -->
    <title>CD1A5053-576A-43F2-8B5C-2306804D5252</title>
    <desc>Created with sketchtool.</desc>
    <g id="Diseño-Desktop" stroke="none" stroke-width="1" fill="none" fill-rule="evenodd" fill-opacity="0.8">
        <g id="20.Sección-Calendario" transform="translate(-162.000000, -768.000000)" fill="#000000" fill-rule="nonzero">
            <g id="Group-2" transform="translate(129.000000, 734.000000)">
                <path d="M38.1991773,34 L38.199,35.5 L47.201,35.5 L47.2011773,34 L48.7011773,34 L48.701,35.5 L52.5,35.5 L52.5,53.5 L33,53.5 L33,35.5 L36.699,35.5 L36.6991773,34 L38.1991773,34 Z M51,41.5 L34.5,41.5 L34.5,52 L51,52 L51,41.5 Z M36.699,36.999 L34.5,37 L34.5,40 L51,40 L51,37 L48.701,36.999 L48.7011773,38.5 L47.2011773,38.5 L47.201,36.999 L38.199,36.999 L38.1991773,38.5 L36.6991773,38.5 L36.699,36.999 Z" id="🎨Icon-color-Copy"></path>
            </g>
        </g>
    </g>
</svg>