<svg xmlns="http://www.w3.org/2000/svg" width="16" height="16" viewBox="0 0 16 16">
    <path fill="#333" fill-rule="evenodd" d="M12.71 2.357l.937.75-1.072 1.337C13.823 5.644 14.6 7.332 14.6 9.2c0 3.645-2.955 6.6-6.6 6.6-3.645 0-6.6-2.955-6.6-6.6 0-3.645 2.955-6.6 6.6-6.6 1.346 0 2.597.403 3.64 1.094l1.072-1.337zM8 3.8c-2.982 0-5.4 2.418-5.4 5.4s2.418 5.4 5.4 5.4 5.4-2.418 5.4-5.4-2.418-5.4-5.4-5.4zM7.403 5h1.2l-.004 4.57-3.267 1.635-.537-1.074L7.399 8.83 7.403 5zM9.8.2v1.2H6.204V.2H9.8z"/>
</svg>
