<svg xmlns="http://www.w3.org/2000/svg" xmlns:xlink="http://www.w3.org/1999/xlink" width="304" height="40" viewBox="0 0 304 40">
    <defs>
        <path id="prefix__a" d="M0 0.191L56.617 0.191 56.617 39.42 0 39.42z"/>
    </defs>
    <g fill="none" fill-rule="evenodd">
        <g transform="translate(0 .389)">
            <mask id="prefix__b" fill="#fff">
                <use xlink:href="#prefix__a"/>
            </mask>
            <path fill="#2D3277" d="M56.617 18.727C56.617 8.516 43.943.191 28.31.191 12.676.191.003 8.516.003 18.727L0 19.813C0 30.646 11.077 39.42 28.306 39.42c17.336 0 28.31-8.771 28.31-19.605v-1.088z" mask="url(#prefix__b)"/>
        </g>
        <path fill="#FFE600" d="M55.533 19.107c0 9.627-12.185 17.432-27.219 17.432-15.032 0-27.217-7.805-27.217-17.432 0-9.628 12.185-17.433 27.217-17.433 15.034 0 27.22 7.805 27.22 17.433"/>
        <path fill="#FFF" d="M19.277 13.607c-.014.028-.285.308-.11.535.43.549 1.756.864 3.098.563.799-.18 1.823-.995 2.815-1.783 1.074-.855 2.141-1.711 3.213-2.052 1.135-.361 1.862-.206 2.343-.06.527.157 1.147.504 2.136 1.247 1.862 1.401 9.35 7.946 10.644 9.077 1.043-.47 5.674-2.467 11.968-3.856-.547-3.36-2.588-6.432-5.683-8.949-4.315 1.814-9.587 2.76-14.742.24-.027-.01-2.817-1.333-5.57-1.268-4.09.095-5.862 1.868-7.737 3.744l-2.375 2.562z"/>
        <path fill="#FFF" d="M43.112 21.846c-.087-.079-8.805-7.715-10.78-9.201-1.143-.858-1.778-1.077-2.446-1.163-.348-.044-.828.02-1.163.112-.919.25-2.12 1.055-3.187 1.901-1.104.88-2.145 1.71-3.111 1.926-1.235.277-2.742-.05-3.43-.515-.278-.187-.475-.405-.57-.625-.253-.589.216-1.061.293-1.14l2.405-2.605c.28-.28.562-.56.85-.834-.776.1-1.494.3-2.192.494-.872.246-1.71.479-2.558.478-.355 0-2.252-.311-2.612-.41-2.177-.596-4.087-1.177-6.941-2.51C4.25 10.303 1.962 13.489 1.302 17c.49.13 1.283.366 1.615.44 7.74 1.722 10.15 3.497 10.588 3.867.473-.527 1.155-.86 1.918-.86.857 0 1.628.431 2.097 1.097.443-.35 1.055-.65 1.845-.65.359 0 .73.067 1.107.195.873.3 1.324.882 1.557 1.409.293-.133.654-.23 1.077-.23.417 0 .85.097 1.288.285 1.426.613 1.649 2.016 1.519 3.074.102-.011.204-.017.308-.017 1.691.002 3.068 1.378 3.067 3.073 0 .524-.133 1.018-.366 1.45.46.26 1.633.846 2.664.715.823-.103 1.135-.385 1.247-.544.077-.11.158-.236.083-.328l-2.184-2.428s-.36-.34-.241-.472c.123-.135.345.059.503.19 1.11.93 2.468 2.332 2.468 2.332.023.015.113.193.615.283.432.077 1.196.032 1.726-.403.133-.11.267-.247.378-.389-.008.007-.016.016-.024.02.558-.715-.062-1.44-.062-1.44l-2.549-2.866s-.365-.337-.24-.473c.11-.118.345.06.504.193.807.676 1.948 1.822 3.041 2.893.213.157 1.175.752 2.446-.084.772-.507.927-1.13.906-1.6-.054-.622-.539-1.065-.539-1.065l-3.483-3.505s-.367-.315-.238-.474c.107-.134.346.059.502.19 1.11.93 4.113 3.686 4.113 3.686.043.03 1.08.77 2.363-.048.458-.293.751-.735.776-1.249.044-.892-.585-1.421-.585-1.421"/>
        <path fill="#FFF" d="M26.22 26.29c-.54-.007-1.13.314-1.207.268-.043-.029.033-.246.084-.371.051-.125.762-2.267-.97-3.01-1.327-.571-2.139.07-2.417.36-.074.076-.106.07-.114-.027-.027-.385-.2-1.429-1.344-1.778-1.637-.502-2.689.641-2.956 1.054-.119-.934-.908-1.659-1.873-1.66-1.05 0-1.9.85-1.902 1.9 0 1.051.85 1.902 1.9 1.902.51.001.972-.202 1.312-.53.011.01.016.027.01.064-.08.47-.227 2.18 1.56 2.875.718.279 1.327.072 1.833-.284.15-.106.175-.061.153.08-.064.44.018 1.381 1.336 1.916 1.002.408 1.596-.01 1.984-.37.17-.154.215-.129.224.11.048 1.272 1.103 2.282 2.385 2.283 1.32.002 2.39-1.067 2.391-2.389.001-1.321-1.068-2.38-2.388-2.393"/>
        <path fill="#2D3277" d="M26.22 30.902c-1.196-.001-2.17-.932-2.213-2.118-.003-.102-.013-.373-.242-.373-.093 0-.175.057-.27.141-.262.244-.598.493-1.087.493-.222 0-.463-.051-.717-.156-1.263-.512-1.28-1.38-1.23-1.73.015-.094.02-.19-.045-.266l-.077-.07h-.08c-.063 0-.13.027-.22.09-.365.257-.715.381-1.072.381-.196 0-.397-.039-.598-.117-1.665-.648-1.533-2.22-1.451-2.693.012-.096-.012-.17-.073-.22l-.118-.097-.11.105c-.324.313-.748.484-1.193.484-.953 0-1.729-.775-1.728-1.73 0-.954.776-1.728 1.73-1.727.86 0 1.593.648 1.704 1.51l.059.464.255-.394c.028-.045.727-1.102 2.01-1.101.244 0 .496.04.75.118 1.023.313 1.197 1.241 1.223 1.628.018.226.179.237.21.237.088 0 .154-.057.2-.105.193-.202.613-.537 1.271-.537.302 0 .622.072.953.214 1.626.699.889 2.768.88 2.79-.14.342-.145.494-.014.581l.064.031h.047c.074 0 .165-.032.315-.083.222-.077.555-.192.868-.191 1.225.013 2.22 1.01 2.22 2.222-.001 1.224-.997 2.219-2.22 2.219m17.229-9.97c-2.686-2.347-8.892-7.748-10.573-9.011-.96-.723-1.615-1.105-2.19-1.277-.258-.078-.616-.167-1.076-.167-.427 0-.887.077-1.366.23-1.086.344-2.169 1.205-3.216 2.038l-.053.042c-.975.776-1.983 1.58-2.746 1.75-.333.075-.675.113-1.016.113-.855 0-1.622-.248-1.91-.615-.046-.06-.016-.159.095-.3l.014-.02 2.363-2.548c1.85-1.852 3.597-3.601 7.62-3.693.067-.003.135-.004.202-.004 2.503.002 5.007 1.124 5.287 1.254 2.348 1.147 4.772 1.73 7.208 1.731 2.539 0 5.159-.628 7.913-1.898-.308-.26-.628-.511-.958-.759-2.419 1.05-4.724 1.582-6.948 1.58-2.272-.001-4.542-.547-6.745-1.624-.116-.055-2.88-1.36-5.757-1.362l-.226.003c-3.38.08-5.283 1.28-6.563 2.333-1.245.03-2.319.33-3.275.598-.853.237-1.589.443-2.307.443-.296 0-.828-.028-.876-.03-.826-.024-4.987-1.046-8.297-2.3-.338.239-.663.486-.98.738 3.458 1.42 7.666 2.517 8.994 2.603.37.024.764.066 1.158.067.878 0 1.755-.247 2.604-.485.5-.14 1.054-.294 1.635-.406L21 10.42l-2.4 2.6c-.19.19-.6.7-.33 1.327.109.254.327.496.632.702.572.385 1.596.646 2.547.647.36 0 .703-.036 1.017-.106 1.006-.227 2.06-1.068 3.179-1.958.891-.71 2.156-1.608 3.126-1.873.27-.073.603-.12.87-.12.08 0 .155.003.225.014.64.081 1.26.3 2.364 1.13 1.971 1.481 10.69 9.117 10.775 9.193.006.004.562.484.523 1.282-.02.445-.267.841-.696 1.115-.373.236-.757.357-1.145.357-.583-.001-.984-.275-1.01-.294-.032-.026-3.02-2.768-4.118-3.69-.175-.144-.345-.275-.517-.275-.092 0-.173.039-.228.107-.174.214.02.51.249.704l3.488 3.512c.006.003.436.407.483.946.027.582-.251 1.068-.829 1.447-.412.272-.829.41-1.237.41-.535 0-.912-.245-.995-.303l-.5-.493c-.915-.901-1.86-1.833-2.551-2.41-.169-.141-.349-.27-.52-.27-.085 0-.161.03-.22.093-.079.087-.133.245.062.507.082.107.177.197.177.197l2.547 2.862c.02.026.524.625.057 1.222l-.09.114c-.076.085-.159.162-.237.229-.434.357-1.015.395-1.245.395-.122 0-.24-.01-.344-.03-.25-.045-.42-.115-.501-.21l-.03-.033c-.14-.145-1.423-1.456-2.486-2.344-.14-.117-.314-.265-.494-.265-.09 0-.169.035-.23.103-.211.23.104.575.238.701l2.172 2.398c-.002.021-.03.07-.082.146-.078.108-.342.371-1.13.47-.093.013-.19.018-.287.018-.813 0-1.68-.394-2.126-.631.204-.43.31-.904.31-1.378 0-1.79-1.452-3.246-3.239-3.247-.039 0-.08 0-.117.003.058-.817-.057-2.365-1.643-3.046-.457-.198-.912-.298-1.355-.298-.346 0-.679.059-.993.18-.328-.64-.874-1.105-1.586-1.348-.393-.137-.784-.206-1.162-.206-.66 0-1.269.195-1.81.58-.52-.646-1.305-1.03-2.132-1.03-.723 0-1.419.29-1.935.802-.675-.517-3.357-2.222-10.534-3.854-.348-.078-1.145-.308-1.634-.45-.08.388-.143.781-.183 1.178 0 0 1.323.318 1.583.376 7.332 1.63 9.755 3.325 10.164 3.646-.139.333-.21.693-.211 1.056-.001 1.516 1.23 2.75 2.747 2.752.17 0 .338-.014.503-.045.228 1.116.958 1.962 2.073 2.396.326.125.655.19.979.19.21 0 .42-.026.625-.079.206.523.67 1.176 1.705 1.597.363.146.726.223 1.08.223.287 0 .569-.05.838-.15.496 1.21 1.677 2.012 2.994 2.012.873.002 1.71-.355 2.321-.985.524.292 1.627.819 2.743.82.145 0 .28-.01.415-.026 1.108-.14 1.624-.574 1.86-.912.043-.058.082-.12.114-.186.262.076.55.137.879.138.606 0 1.186-.207 1.773-.635.577-.416.986-1.014 1.045-1.522l.004-.022c.194.04.393.06.593.06.622 0 1.235-.194 1.82-.578 1.13-.741 1.326-1.71 1.308-2.343.197.041.399.062.6.062.584 0 1.159-.176 1.706-.525.7-.448 1.122-1.134 1.185-1.932.044-.543-.09-1.09-.376-1.56 1.892-.816 6.217-2.396 11.31-3.545-.031-.396-.088-.786-.159-1.175-6.162 1.369-10.76 3.361-11.911 3.875M78.426 24.834c.18 0 .338.07.478.209l1.3 1.413c-.72.892-1.605 1.577-2.656 2.051-1.051.475-2.312.713-3.785.713-1.317 0-2.501-.225-3.552-.676-1.051-.45-1.95-1.077-2.693-1.879-.745-.803-1.315-1.761-1.712-2.875-.397-1.113-.595-2.33-.595-3.648 0-1.334.213-2.557.638-3.667.425-1.11 1.025-2.065 1.797-2.868.774-.802 1.696-1.427 2.767-1.873 1.072-.446 2.258-.67 3.559-.67 1.292 0 2.44.213 3.44.64 1.003.425 1.856.982 2.56 1.67l-1.105 1.535c-.066.099-.149.184-.251.258-.103.074-.244.11-.424.11-.122 0-.25-.035-.38-.104-.131-.07-.275-.156-.43-.258-.155-.102-.335-.215-.54-.338-.204-.122-.441-.235-.711-.338-.27-.102-.583-.188-.939-.258-.355-.068-.766-.103-1.233-.103-.793 0-1.52.141-2.178.423-.658.282-1.225.692-1.699 1.228-.475.537-.842 1.192-1.104 1.966-.262.773-.393 1.656-.393 2.647 0 1 .142 1.888.423 2.666.283.778.665 1.433 1.148 1.965.482.532 1.05.94 1.706 1.222.653.283 1.357.424 2.11.424.45 0 .857-.025 1.22-.074.364-.05.7-.126 1.007-.234.307-.106.597-.243.87-.41.274-.169.547-.376.816-.62.082-.075.168-.134.258-.18.09-.044.184-.067.283-.067M89.849 21.272c0-.393-.055-.763-.166-1.111-.11-.35-.276-.654-.497-.916-.22-.261-.501-.469-.84-.62-.34-.152-.735-.228-1.185-.228-.875 0-1.564.25-2.067.75-.503.5-.824 1.208-.963 2.125h5.718zm-5.78 1.83c.05.647.164 1.206.344 1.677.18.471.417.86.712 1.167.295.307.644.537 1.05.688.404.152.852.227 1.343.227.49 0 .914-.057 1.27-.172.355-.115.666-.242.932-.38.265-.14.499-.266.7-.382.2-.114.394-.172.582-.172.254 0 .441.095.565.283l.87 1.106c-.335.393-.71.723-1.128.989-.417.266-.853.478-1.307.638-.454.16-.916.272-1.387.338-.47.065-.925.098-1.367.098-.876 0-1.69-.145-2.442-.436-.753-.29-1.407-.72-1.963-1.29-.557-.569-.994-1.273-1.313-2.113-.319-.838-.478-1.811-.478-2.917 0-.86.138-1.668.416-2.425.279-.758.677-1.418 1.197-1.978.52-.561 1.153-1.005 1.902-1.333.748-.327 1.593-.491 2.533-.491.794 0 1.526.127 2.196.38.671.254 1.248.625 1.73 1.112.484.487.862 1.085 1.136 1.793.273.709.411 1.517.411 2.426 0 .46-.049.768-.147.928-.099.16-.287.239-.565.239H84.07zM97.676 17.968c.254-.254.522-.49.804-.706.282-.218.58-.401.896-.554.315-.151.653-.27 1.012-.355.36-.087.752-.13 1.178-.13.687 0 1.296.117 1.829.35.531.234.975.562 1.33.983.356.423.627.925.81 1.51.184.587.276 1.232.276 1.936v8.02h-3.03v-8.02c0-.77-.176-1.366-.528-1.788-.352-.42-.887-.632-1.607-.632-.524 0-1.015.119-1.473.356-.458.237-.89.561-1.3.971v9.114h-3.031V16.419h1.853c.393 0 .65.185.773.554l.208.995zM112.707 29.22c-1.096 0-1.937-.31-2.52-.928-.586-.618-.878-1.472-.878-2.561v-7.038h-1.29c-.162 0-.301-.053-.415-.161-.116-.106-.172-.266-.172-.479V16.85l2.024-.332.638-3.44c.041-.163.118-.29.233-.38.115-.09.262-.135.442-.135h1.57v3.968h3.363v2.162h-3.363v6.83c0 .393.096.7.288.92.193.222.456.332.792.332.188 0 .346-.022.472-.068.127-.045.237-.092.332-.14.094-.05.177-.097.252-.142.073-.044.147-.067.22-.067.09 0 .163.023.22.067.058.045.12.113.185.203l.908 1.474c-.442.368-.949.647-1.522.835-.572.189-1.165.283-1.779.283M120.498 18.606c.393-.753.86-1.344 1.4-1.775.54-.43 1.177-.644 1.913-.644.581 0 1.047.126 1.4.38l-.198 2.272c-.04.148-.1.253-.177.314-.079.061-.182.092-.313.092-.123 0-.305-.02-.546-.062-.242-.04-.476-.06-.706-.06-.335 0-.634.049-.895.147-.262.098-.497.239-.706.424-.208.184-.392.407-.553.669-.158.262-.308.56-.447.897v7.763h-3.03V16.42h1.779c.31 0 .528.055.65.166.123.11.204.308.245.596l.184 1.424zM132.007 26.873c1.048 0 1.822-.35 2.326-1.056.503-.704.754-1.736.754-3.095 0-1.36-.251-2.396-.754-3.108-.504-.713-1.278-1.069-2.326-1.069-1.063 0-1.85.359-2.361 1.075-.512.717-.767 1.75-.767 3.102 0 1.35.255 2.381.767 3.089.51.708 1.298 1.062 2.361 1.062m0-10.65c.933 0 1.781.152 2.547.455.764.303 1.418.733 1.962 1.29.544.556.964 1.236 1.258 2.039.295.802.443 1.699.443 2.69 0 1-.148 1.9-.443 2.703-.294.802-.714 1.486-1.258 2.05-.544.566-1.198 1-1.962 1.303-.766.303-1.614.454-2.547.454-.94 0-1.795-.15-2.564-.454-.77-.303-1.426-.737-1.97-1.302-.544-.565-.965-1.249-1.263-2.051-.299-.803-.448-1.703-.448-2.703 0-.991.15-1.888.448-2.69.298-.803.72-1.483 1.264-2.04.543-.556 1.2-.986 1.969-1.289.769-.303 1.624-.454 2.564-.454M154.4 19.638c-.344-.418-.719-.712-1.123-.884-.406-.172-.841-.259-1.307-.259-.458 0-.871.087-1.24.26-.368.17-.683.431-.945.778-.26.35-.462.791-.6 1.327-.139.537-.208 1.17-.208 1.898 0 .737.058 1.362.176 1.874.12.512.289.93.51 1.252.22.324.49.557.81.7.32.144.674.216 1.068.216.628 0 1.165-.13 1.607-.394.442-.262.858-.634 1.251-1.118v-5.65zm3.03-8.869v18.254h-1.853c-.401 0-.655-.185-.76-.553l-.259-1.215c-.507.581-1.09 1.052-1.748 1.411-.659.361-1.425.541-2.3.541-.687 0-1.317-.143-1.89-.429-.573-.287-1.066-.703-1.478-1.247-.413-.545-.732-1.218-.958-2.02-.225-.804-.337-1.721-.337-2.753 0-.934.127-1.8.38-2.604.254-.803.618-1.498 1.092-2.088.475-.59 1.044-1.05 1.706-1.382.663-.331 1.407-.497 2.234-.497.703 0 1.304.11 1.803.33.499.222.944.522 1.337.898V10.77h3.031zM168.533 21.272c0-.393-.055-.763-.165-1.111-.11-.35-.276-.654-.498-.916-.22-.261-.5-.469-.84-.62-.34-.152-.733-.228-1.184-.228-.875 0-1.564.25-2.067.75-.503.5-.824 1.208-.963 2.125h5.717zm-5.779 1.83c.05.647.164 1.206.343 1.677.182.471.418.86.713 1.167.294.307.644.537 1.049.688.404.152.853.227 1.343.227.491 0 .914-.057 1.27-.172.356-.115.667-.242.933-.38.265-.14.498-.266.699-.382.2-.114.395-.172.583-.172.253 0 .442.095.564.283l.872 1.106c-.336.393-.712.723-1.13.989-.417.266-.852.478-1.306.638-.454.16-.916.272-1.387.338-.47.065-.926.098-1.367.098-.876 0-1.69-.145-2.443-.436-.752-.29-1.406-.72-1.963-1.29-.556-.569-.993-1.273-1.312-2.113-.32-.838-.479-1.811-.479-2.917 0-.86.14-1.668.417-2.425.278-.758.677-1.418 1.197-1.978.52-.561 1.153-1.005 1.901-1.333.748-.327 1.594-.491 2.534-.491.793 0 1.526.127 2.197.38.67.254 1.246.625 1.73 1.112.482.487.86 1.085 1.134 1.793.274.709.411 1.517.411 2.426 0 .46-.049.768-.147.928-.098.16-.286.239-.564.239h-7.792zM190.252 16.42l-4.995 12.603h-2.747l-4.994-12.604h2.503c.228 0 .419.054.57.16.151.107.252.242.3.406l2.43 6.731c.131.394.246.779.344 1.155.098.377.184.754.257 1.13.082-.376.172-.753.27-1.13.099-.376.217-.761.356-1.155l2.479-6.73c.057-.165.16-.3.307-.407.147-.106.323-.16.527-.16h2.393zM199.577 21.272c0-.393-.055-.763-.165-1.111-.111-.35-.277-.654-.498-.916-.22-.261-.501-.469-.84-.62-.34-.152-.734-.228-1.184-.228-.875 0-1.564.25-2.068.75-.503.5-.824 1.208-.963 2.125h5.718zm-5.779 1.83c.049.647.163 1.206.343 1.677.181.471.418.86.712 1.167.295.307.645.537 1.05.688.404.152.852.227 1.343.227.49 0 .914-.057 1.27-.172.356-.115.666-.242.932-.38.266-.14.499-.266.7-.382.2-.114.394-.172.582-.172.254 0 .442.095.564.283l.872 1.106c-.335.393-.712.723-1.129.989-.417.266-.853.478-1.306.638-.455.16-.917.272-1.387.338-.47.065-.926.098-1.368.098-.875 0-1.69-.145-2.442-.436-.752-.29-1.407-.72-1.964-1.29-.555-.569-.993-1.273-1.312-2.113-.32-.838-.478-1.811-.478-2.917 0-.86.139-1.668.416-2.425.279-.758.677-1.418 1.197-1.978.52-.561 1.153-1.005 1.902-1.333.748-.327 1.593-.491 2.533-.491.793 0 1.527.127 2.197.38.67.254 1.247.625 1.73 1.112.483.487.86 1.085 1.135 1.793.274.709.41 1.517.41 2.426 0 .46-.048.768-.147.928-.097.16-.286.239-.563.239h-7.792zM207.405 17.968c.253-.254.52-.49.803-.706.282-.218.581-.401.896-.554.315-.151.653-.27 1.013-.355.359-.087.752-.13 1.177-.13.687 0 1.297.117 1.828.35.532.234.976.562 1.332.983.356.423.625.925.809 1.51.185.587.277 1.232.277 1.936v8.02h-3.03v-8.02c0-.77-.176-1.366-.529-1.788-.351-.42-.888-.632-1.607-.632-.523 0-1.015.119-1.472.356-.459.237-.892.561-1.3.971v9.114h-3.032V16.419h1.853c.393 0 .65.185.773.554l.209.995zM226.313 19.638c-.344-.418-.718-.712-1.123-.884-.406-.172-.841-.259-1.307-.259-.458 0-.871.087-1.24.26-.368.17-.683.431-.945.778-.26.35-.461.791-.6 1.327-.14.537-.209 1.17-.209 1.898 0 .737.06 1.362.177 1.874.12.512.289.93.51 1.252.22.324.491.557.81.7.32.144.675.216 1.068.216.629 0 1.165-.13 1.607-.394.442-.262.858-.634 1.252-1.118v-5.65zm3.03-8.869v18.254h-1.853c-.4 0-.655-.185-.76-.553l-.259-1.215c-.507.581-1.089 1.052-1.747 1.411-.66.361-1.426.541-2.3.541-.689 0-1.318-.143-1.89-.429-.574-.287-1.066-.703-1.48-1.247-.413-.545-.731-1.218-.957-2.02-.225-.804-.337-1.721-.337-2.753 0-.934.126-1.8.381-2.604.253-.803.617-1.498 1.092-2.088.474-.59 1.043-1.05 1.705-1.382.663-.331 1.406-.497 2.233-.497.704 0 1.305.11 1.804.33.5.222.944.522 1.338.898V10.77h3.03zM240.447 21.272c0-.393-.055-.763-.165-1.111-.112-.35-.277-.654-.498-.916-.22-.261-.501-.469-.84-.62-.34-.152-.735-.228-1.185-.228-.875 0-1.564.25-2.067.75-.503.5-.824 1.208-.963 2.125h5.718zm-5.78 1.83c.05.647.164 1.206.344 1.677.18.471.418.86.712 1.167.295.307.644.537 1.049.688.405.152.852.227 1.343.227.49 0 .915-.057 1.27-.172.356-.115.667-.242.933-.38.265-.14.499-.266.699-.382.2-.114.395-.172.583-.172.254 0 .442.095.564.283l.872 1.106c-.336.393-.712.723-1.13.989-.416.266-.852.478-1.306.638-.454.16-.916.272-1.387.338-.47.065-.926.098-1.367.098-.876 0-1.69-.145-2.442-.436-.753-.29-1.407-.72-1.964-1.29-.556-.569-.993-1.273-1.312-2.113-.32-.838-.478-1.811-.478-2.917 0-.86.139-1.668.416-2.425.279-.758.677-1.418 1.197-1.978.519-.561 1.153-1.005 1.901-1.333.749-.327 1.594-.491 2.534-.491.793 0 1.526.127 2.197.38.67.254 1.247.625 1.729 1.112.483.487.862 1.085 1.135 1.793.274.709.412 1.517.412 2.426 0 .46-.05.768-.148.928-.097.16-.286.239-.564.239h-7.791zM253.343 19.638c-.344-.418-.718-.712-1.123-.884-.406-.172-.841-.259-1.307-.259-.458 0-.87.087-1.24.26-.368.17-.682.431-.944.778-.262.35-.462.791-.601 1.327-.139.537-.208 1.17-.208 1.898 0 .737.059 1.362.177 1.874.12.512.288.93.51 1.252.22.324.49.557.81.7.318.144.674.216 1.067.216.629 0 1.165-.13 1.607-.394.442-.262.859-.634 1.252-1.118v-5.65zm3.03-8.869v18.254h-1.853c-.4 0-.654-.185-.76-.553l-.258-1.215c-.508.581-1.09 1.052-1.748 1.411-.659.361-1.426.541-2.3.541-.688 0-1.318-.143-1.89-.429-.574-.287-1.066-.703-1.479-1.247-.413-.545-.732-1.218-.958-2.02-.224-.804-.337-1.721-.337-2.753 0-.934.127-1.8.38-2.604.254-.803.618-1.498 1.093-2.088.475-.59 1.043-1.05 1.706-1.382.662-.331 1.406-.497 2.233-.497.703 0 1.304.11 1.803.33.499.222.945.522 1.338.898V10.77h3.03zM264.937 26.873c1.047 0 1.822-.35 2.325-1.056.504-.704.755-1.736.755-3.095 0-1.36-.251-2.396-.755-3.108-.503-.713-1.278-1.069-2.325-1.069-1.063 0-1.85.359-2.361 1.075-.512.717-.767 1.75-.767 3.102 0 1.35.255 2.381.767 3.089.51.708 1.298 1.062 2.36 1.062m0-10.65c.934 0 1.782.152 2.547.455.765.303 1.42.733 1.963 1.29.544.556.964 1.236 1.258 2.039.294.802.442 1.699.442 2.69 0 1-.148 1.9-.442 2.703-.294.802-.714 1.486-1.258 2.05-.544.566-1.198 1-1.963 1.303-.765.303-1.613.454-2.546.454-.94 0-1.795-.15-2.565-.454-.769-.303-1.425-.737-1.968-1.302-.545-.565-.966-1.249-1.264-2.051-.299-.803-.448-1.703-.448-2.703 0-.991.15-1.888.448-2.69.298-.803.72-1.483 1.264-2.04.543-.556 1.2-.986 1.968-1.289.77-.303 1.625-.454 2.565-.454M276.323 18.606c.392-.753.858-1.344 1.399-1.775.54-.43 1.177-.644 1.914-.644.58 0 1.047.126 1.398.38l-.196 2.272c-.04.148-.1.253-.178.314-.078.061-.181.092-.313.092-.123 0-.304-.02-.546-.062-.24-.04-.476-.06-.705-.06-.336 0-.635.049-.896.147-.262.098-.496.239-.705.424-.209.184-.393.407-.553.669-.159.262-.308.56-.447.897v7.763h-3.03V16.42h1.778c.31 0 .528.055.65.166.123.11.204.308.246.596l.184 1.424zM290.372 21.272c0-.393-.056-.763-.166-1.111-.11-.35-.276-.654-.498-.916-.22-.261-.5-.469-.84-.62-.34-.152-.733-.228-1.184-.228-.875 0-1.563.25-2.067.75-.503.5-.824 1.208-.963 2.125h5.718zm-5.78 1.83c.05.647.164 1.206.344 1.677.18.471.417.86.712 1.167.294.307.644.537 1.049.688.405.152.853.227 1.343.227.491 0 .915-.057 1.27-.172.356-.115.667-.242.933-.38.265-.14.499-.266.699-.382.2-.114.395-.172.583-.172.254 0 .442.095.564.283l.872 1.106c-.335.393-.712.723-1.13.989-.417.266-.852.478-1.306.638-.454.16-.916.272-1.387.338-.47.065-.925.098-1.367.098-.876 0-1.69-.145-2.442-.436-.753-.29-1.407-.72-1.964-1.29-.556-.569-.993-1.273-1.312-2.113-.32-.838-.478-1.811-.478-2.917 0-.86.138-1.668.416-2.425.278-.758.677-1.418 1.197-1.978.52-.561 1.153-1.005 1.901-1.333.748-.327 1.594-.491 2.534-.491.793 0 1.526.127 2.197.38.67.254 1.247.625 1.73 1.112.482.487.86 1.085 1.134 1.793.275.709.412 1.517.412 2.426 0 .46-.05.768-.148.928-.098.16-.286.239-.564.239h-7.791zM303.047 18.876c-.082.132-.168.224-.257.278-.091.052-.205.079-.344.079-.148 0-.305-.04-.473-.124l-.582-.275c-.222-.103-.474-.194-.755-.277-.282-.081-.617-.123-1-.123-.597 0-1.066.127-1.405.382-.34.253-.51.585-.51.994 0 .27.089.498.264.681.176.185.41.347.7.486.29.14.62.264.987.375.369.11.743.232 1.123.363.38.13.755.28 1.123.447.368.168.697.381.988.64.29.257.523.567.699.927.176.36.263.794.263 1.302 0 .606-.107 1.165-.325 1.676-.216.513-.537.954-.963 1.327-.425.372-.95.664-1.576.873-.626.208-1.347.313-2.166.313-.434 0-.857-.04-1.27-.116-.413-.08-.81-.187-1.19-.326-.38-.14-.732-.303-1.055-.492-.323-.188-.608-.393-.853-.614l.7-1.155c.09-.14.196-.245.319-.319.122-.073.278-.11.465-.11.19 0 .366.052.534.159.168.107.362.221.583.344.221.123.48.238.78.344.298.107.677.16 1.134.16.36 0 .669-.044.927-.13.257-.086.47-.198.638-.337.168-.139.29-.301.367-.486.08-.184.117-.374.117-.57 0-.296-.088-.537-.264-.726-.175-.188-.408-.352-.7-.49-.29-.14-.62-.265-.993-.376-.372-.11-.752-.231-1.14-.362-.39-.13-.77-.284-1.142-.46-.372-.177-.703-.4-.994-.67-.29-.27-.523-.602-.699-.995-.176-.393-.264-.868-.264-1.425 0-.516.102-1.007.307-1.474.204-.467.505-.874.901-1.222.398-.348.892-.627 1.486-.835.592-.209 1.278-.313 2.055-.313.866 0 1.656.143 2.368.43.711.286 1.304.663 1.779 1.13l-.687 1.092z"/>
    </g>
</svg>
