<svg id="Capa_1" data-name="Capa 1" xmlns="http://www.w3.org/2000/svg" viewBox="0 0 254 32"><defs><style>.cls-1{fill:#2d3277;}.cls-2{fill:#ffd100;}.cls-3{fill:#fff;}</style></defs><path class="cls-1" d="M62.62,19.85A.5.5,0,0,1,63,20l1.07,1.16a5.9,5.9,0,0,1-2.18,1.68,7.51,7.51,0,0,1-3.11.58,7.29,7.29,0,0,1-2.91-.55,6.33,6.33,0,0,1-2.21-1.54A6.75,6.75,0,0,1,52.26,19a8.72,8.72,0,0,1-.49-3,8.31,8.31,0,0,1,.53-3,6.84,6.84,0,0,1,1.47-2.35A6.76,6.76,0,0,1,56,9.1,7.67,7.67,0,0,1,59,8.55a7.14,7.14,0,0,1,2.83.53,6.7,6.7,0,0,1,2.1,1.37L63,11.71a.8.8,0,0,1-.2.21.61.61,0,0,1-.35.09.64.64,0,0,1-.31-.09,1.9,1.9,0,0,1-.35-.21l-.45-.27a2.84,2.84,0,0,0-.58-.28A3.72,3.72,0,0,0,60,11a5.16,5.16,0,0,0-1-.09,4.49,4.49,0,0,0-1.78.35,3.9,3.9,0,0,0-1.4,1,4.67,4.67,0,0,0-.91,1.61A6.88,6.88,0,0,0,54.54,16a6.45,6.45,0,0,0,.35,2.19,5,5,0,0,0,.94,1.61,4.09,4.09,0,0,0,1.4,1,4.38,4.38,0,0,0,1.73.35,7.73,7.73,0,0,0,1-.06,4.7,4.7,0,0,0,.82-.19,3.65,3.65,0,0,0,.72-.34,5,5,0,0,0,.67-.51,1.37,1.37,0,0,1,.21-.15A.59.59,0,0,1,62.62,19.85Z"/><path class="cls-1" d="M67.26,18.43a4.73,4.73,0,0,0,.28,1.37,2.83,2.83,0,0,0,.58,1,2.25,2.25,0,0,0,.86.56,3,3,0,0,0,1.11.19,3.54,3.54,0,0,0,1-.14,5.13,5.13,0,0,0,.77-.31c.21-.12.41-.22.57-.32A1,1,0,0,1,73,20.6a.5.5,0,0,1,.46.24l.72.9a4.44,4.44,0,0,1-.93.81,5.08,5.08,0,0,1-1.07.53,5.72,5.72,0,0,1-1.14.27,7.29,7.29,0,0,1-1.12.08,5.74,5.74,0,0,1-2-.35A4.47,4.47,0,0,1,66.25,22a5,5,0,0,1-1.08-1.73,6.79,6.79,0,0,1-.39-2.4,5.7,5.7,0,0,1,.34-2,4.91,4.91,0,0,1,1-1.62,4.71,4.71,0,0,1,1.56-1.09,5.15,5.15,0,0,1,2.08-.4,5,5,0,0,1,1.81.31A4,4,0,0,1,73,14a4.25,4.25,0,0,1,.93,1.47,5.36,5.36,0,0,1,.34,2,1.61,1.61,0,0,1-.12.76.51.51,0,0,1-.47.2ZM72,16.93a3.05,3.05,0,0,0-.13-.92,2.48,2.48,0,0,0-.41-.75,2,2,0,0,0-.69-.51,2.48,2.48,0,0,0-1-.18,2.29,2.29,0,0,0-1.69.61,3,3,0,0,0-.79,1.75Z"/><path class="cls-1" d="M78.43,14.22a6,6,0,0,1,.66-.58,4.7,4.7,0,0,1,.73-.46,4.37,4.37,0,0,1,.84-.29,4.1,4.1,0,0,1,1-.1,3.68,3.68,0,0,1,1.5.28,3,3,0,0,1,1.1.81,3.51,3.51,0,0,1,.66,1.24,5.29,5.29,0,0,1,.23,1.58v6.58H82.62V16.7a2.19,2.19,0,0,0-.43-1.46,1.61,1.61,0,0,0-1.32-.52,2.63,2.63,0,0,0-1.21.29,4.39,4.39,0,0,0-1.07.8v7.47H76.1V13h1.52a.61.61,0,0,1,.64.45Z"/><path class="cls-1" d="M90.77,23.44a2.7,2.7,0,0,1-2.07-.76,2.91,2.91,0,0,1-.72-2.1V14.81H86.92a.47.47,0,0,1-.34-.13.53.53,0,0,1-.14-.39v-1L88.1,13l.52-2.82a.59.59,0,0,1,.2-.32.57.57,0,0,1,.36-.11h1.29V13h2.76v1.77H90.47v5.6a1.12,1.12,0,0,0,.24.76.8.8,0,0,0,.64.27,1.07,1.07,0,0,0,.39-.06,1.49,1.49,0,0,0,.28-.11l.2-.12a.41.41,0,0,1,.18,0,.3.3,0,0,1,.18,0,.89.89,0,0,1,.16.17l.74,1.21a3.7,3.7,0,0,1-1.25.68A4.51,4.51,0,0,1,90.77,23.44Z"/><path class="cls-1" d="M97.17,14.74a4.42,4.42,0,0,1,1.15-1.46,2.44,2.44,0,0,1,1.57-.53,1.91,1.91,0,0,1,1.15.32l-.16,1.86a.58.58,0,0,1-.15.26.4.4,0,0,1-.26.07,2.32,2.32,0,0,1-.45,0,3.77,3.77,0,0,0-.57-.05,2.09,2.09,0,0,0-.74.12,1.8,1.8,0,0,0-.58.35,2.45,2.45,0,0,0-.45.55,5.1,5.1,0,0,0-.37.74v6.36H94.82V13h1.46a.84.84,0,0,1,.54.13.86.86,0,0,1,.2.49Z"/><path class="cls-1" d="M102,14.39a6.14,6.14,0,0,1,4.3-1.64,4.18,4.18,0,0,1,1.62.3,3.57,3.57,0,0,1,1.21.83,3.47,3.47,0,0,1,.75,1.26,4.9,4.9,0,0,1,.25,1.61v6.53H109a1.17,1.17,0,0,1-.55-.1.72.72,0,0,1-.3-.43L107.9,22a6.75,6.75,0,0,1-.77.62,4.16,4.16,0,0,1-1.64.73,5.2,5.2,0,0,1-1,.09,3.93,3.93,0,0,1-1.21-.17,2.66,2.66,0,0,1-1-.53,2.45,2.45,0,0,1-.63-.88,3.06,3.06,0,0,1-.22-1.22,2.36,2.36,0,0,1,.13-.78,2.34,2.34,0,0,1,.43-.74,3.68,3.68,0,0,1,.77-.66,5.22,5.22,0,0,1,1.16-.55,9.86,9.86,0,0,1,1.61-.37,15.53,15.53,0,0,1,2.1-.18v-.61a2.22,2.22,0,0,0-.45-1.53,1.62,1.62,0,0,0-1.28-.5,3.17,3.17,0,0,0-1,.14,3.5,3.5,0,0,0-.7.32l-.55.32a1.12,1.12,0,0,1-.55.14.72.72,0,0,1-.44-.14,1.1,1.1,0,0,1-.29-.32Zm5.71,4.48a13.26,13.26,0,0,0-1.82.19,5,5,0,0,0-1.18.34,1.66,1.66,0,0,0-.63.5,1,1,0,0,0-.19.61,1.08,1.08,0,0,0,.39.94,1.64,1.64,0,0,0,1,.28,2.86,2.86,0,0,0,1.32-.28,3.75,3.75,0,0,0,1.1-.84Z"/><path class="cls-1" d="M115,8.31v15h-2.49v-15Z"/><path class="cls-1" d="M131.31,8.31v15h-1.52a.59.59,0,0,1-.63-.45l-.21-1A5,5,0,0,1,127.52,23a3.83,3.83,0,0,1-1.89.44,3.33,3.33,0,0,1-1.55-.35,3.39,3.39,0,0,1-1.22-1,4.82,4.82,0,0,1-.78-1.66,8.17,8.17,0,0,1-.28-2.26,7,7,0,0,1,.31-2.13,5.16,5.16,0,0,1,.9-1.71,4.27,4.27,0,0,1,1.4-1.14,4,4,0,0,1,1.83-.41,3.65,3.65,0,0,1,1.48.28,3.7,3.7,0,0,1,1.1.73V8.31Zm-2.49,7.28a2.38,2.38,0,0,0-.92-.73,2.72,2.72,0,0,0-1.07-.21,2.38,2.38,0,0,0-1,.21,2.07,2.07,0,0,0-.78.64,3.14,3.14,0,0,0-.49,1.09,6.44,6.44,0,0,0-.17,1.55,6.74,6.74,0,0,0,.15,1.54,3,3,0,0,0,.41,1,1.58,1.58,0,0,0,.67.57,2.05,2.05,0,0,0,.87.18,2.58,2.58,0,0,0,1.32-.32,3.82,3.82,0,0,0,1-.92Z"/><path class="cls-1" d="M135.68,18.43A5.09,5.09,0,0,0,136,19.8a2.84,2.84,0,0,0,.59,1,2.25,2.25,0,0,0,.86.56,3,3,0,0,0,1.1.19,3.61,3.61,0,0,0,1.05-.14,5,5,0,0,0,.76-.31l.58-.32a1,1,0,0,1,.48-.14.51.51,0,0,1,.46.24l.71.9a4.15,4.15,0,0,1-.92.81,5.15,5.15,0,0,1-1.08.53,5.63,5.63,0,0,1-1.13.27,7.33,7.33,0,0,1-1.13.08,5.68,5.68,0,0,1-2-.35A4.39,4.39,0,0,1,134.68,22a5,5,0,0,1-1.08-1.73,6.78,6.78,0,0,1-.4-2.4,5.71,5.71,0,0,1,.35-2,4.59,4.59,0,0,1,2.54-2.71,5.15,5.15,0,0,1,2.08-.4,5,5,0,0,1,1.8.31,3.94,3.94,0,0,1,1.43.91,4.4,4.4,0,0,1,.93,1.47,5.57,5.57,0,0,1,.34,2,1.58,1.58,0,0,1-.13.76.5.5,0,0,1-.46.2Zm4.75-1.5a3.06,3.06,0,0,0-.14-.92,2.11,2.11,0,0,0-.41-.75,2,2,0,0,0-.69-.51,2.4,2.4,0,0,0-1-.18,2.32,2.32,0,0,0-1.7.61,3.07,3.07,0,0,0-.79,1.75Z"/><path class="cls-1" d="M158.26,13l-4.1,10.33H151.9L147.8,13h2.06a.79.79,0,0,1,.47.13.61.61,0,0,1,.24.33l2,5.52c.11.32.2.64.28.95s.15.62.21.92c.07-.3.14-.61.22-.92a9.42,9.42,0,0,1,.3-.95l2-5.52a.68.68,0,0,1,.25-.33.72.72,0,0,1,.44-.13Z"/><path class="cls-1" d="M161.17,18.43a5.09,5.09,0,0,0,.28,1.37,2.84,2.84,0,0,0,.59,1,2.25,2.25,0,0,0,.86.56,3,3,0,0,0,1.1.19,3.61,3.61,0,0,0,1.05-.14,5,5,0,0,0,.76-.31l.58-.32a1,1,0,0,1,.47-.14.52.52,0,0,1,.47.24l.71.9a4.15,4.15,0,0,1-.92.81,5.15,5.15,0,0,1-1.08.53,5.56,5.56,0,0,1-1.14.27,7.2,7.2,0,0,1-1.12.08,5.64,5.64,0,0,1-2-.35A4.39,4.39,0,0,1,160.17,22a5,5,0,0,1-1.08-1.73,6.78,6.78,0,0,1-.4-2.4,5.71,5.71,0,0,1,.35-2,4.59,4.59,0,0,1,2.54-2.71,5.15,5.15,0,0,1,2.08-.4,5,5,0,0,1,1.8.31,3.9,3.9,0,0,1,1.42.91,4.27,4.27,0,0,1,.94,1.47,5.57,5.57,0,0,1,.33,2,1.61,1.61,0,0,1-.12.76.5.5,0,0,1-.46.2Zm4.75-1.5a3.06,3.06,0,0,0-.14-.92,2.28,2.28,0,0,0-.41-.75,2,2,0,0,0-.69-.51,2.43,2.43,0,0,0-1-.18,2.32,2.32,0,0,0-1.7.61,3.07,3.07,0,0,0-.79,1.75Z"/><path class="cls-1" d="M172.35,14.22a5.09,5.09,0,0,1,.65-.58,4.78,4.78,0,0,1,.74-.46,4.52,4.52,0,0,1,.83-.29,4.25,4.25,0,0,1,1-.1,3.75,3.75,0,0,1,1.5.28,2.86,2.86,0,0,1,1.09.81,3.37,3.37,0,0,1,.67,1.24A5.29,5.29,0,0,1,179,16.7v6.58h-2.48V16.7a2.19,2.19,0,0,0-.44-1.46,1.61,1.61,0,0,0-1.32-.52,2.66,2.66,0,0,0-1.21.29,4.35,4.35,0,0,0-1.06.8v7.47H170V13h1.52a.61.61,0,0,1,.63.45Z"/><path class="cls-1" d="M190.36,8.31v15h-1.52a.59.59,0,0,1-.63-.45l-.21-1A5.11,5.11,0,0,1,186.57,23a3.85,3.85,0,0,1-1.89.44,3.38,3.38,0,0,1-2.77-1.37,4.82,4.82,0,0,1-.78-1.66,8.17,8.17,0,0,1-.28-2.26,7,7,0,0,1,.31-2.13,5.16,5.16,0,0,1,.9-1.71,4.17,4.17,0,0,1,1.4-1.14,4,4,0,0,1,1.83-.41,3.65,3.65,0,0,1,1.48.28,3.7,3.7,0,0,1,1.1.73V8.31Zm-2.49,7.28a2.38,2.38,0,0,0-.92-.73,2.72,2.72,0,0,0-1.07-.21,2.38,2.38,0,0,0-1,.21,2.07,2.07,0,0,0-.78.64,3.14,3.14,0,0,0-.49,1.09,6,6,0,0,0-.17,1.55,7.42,7.42,0,0,0,.14,1.54,3.16,3.16,0,0,0,.42,1,1.53,1.53,0,0,0,.67.57,2.05,2.05,0,0,0,.87.18,2.58,2.58,0,0,0,1.32-.32,3.82,3.82,0,0,0,1-.92Z"/><path class="cls-1" d="M194.73,18.43A5.09,5.09,0,0,0,195,19.8a2.84,2.84,0,0,0,.59,1,2.25,2.25,0,0,0,.86.56,3,3,0,0,0,1.1.19,3.54,3.54,0,0,0,1-.14,4.73,4.73,0,0,0,.77-.31c.22-.12.41-.22.57-.32a1,1,0,0,1,.48-.14.52.52,0,0,1,.47.24l.71.9a4.15,4.15,0,0,1-.92.81,5.4,5.4,0,0,1-1.08.53,5.56,5.56,0,0,1-1.14.27,7.2,7.2,0,0,1-1.12.08,5.64,5.64,0,0,1-2-.35A4.51,4.51,0,0,1,193.72,22a5.12,5.12,0,0,1-1.07-1.73,6.56,6.56,0,0,1-.4-2.4,5.94,5.94,0,0,1,.34-2,4.78,4.78,0,0,1,1-1.62,4.51,4.51,0,0,1,1.56-1.09,5.11,5.11,0,0,1,2.08-.4,5,5,0,0,1,1.8.31,3.9,3.9,0,0,1,1.42.91,4.27,4.27,0,0,1,.94,1.47,5.57,5.57,0,0,1,.33,2,1.61,1.61,0,0,1-.12.76.5.5,0,0,1-.46.2Zm4.75-1.5a3.06,3.06,0,0,0-.14-.92,2.28,2.28,0,0,0-.41-.75,2,2,0,0,0-.69-.51,2.43,2.43,0,0,0-1-.18,2.32,2.32,0,0,0-1.7.61,3.07,3.07,0,0,0-.79,1.75Z"/><path class="cls-1" d="M212.55,8.31v15H211a.57.57,0,0,1-.62-.45l-.21-1A5.15,5.15,0,0,1,208.76,23a3.83,3.83,0,0,1-1.89.44,3.36,3.36,0,0,1-1.55-.35,3.28,3.28,0,0,1-1.21-1,4.83,4.83,0,0,1-.79-1.66,8.17,8.17,0,0,1-.28-2.26,7.31,7.31,0,0,1,.31-2.13,5.16,5.16,0,0,1,.9-1.71,4.27,4.27,0,0,1,1.4-1.14,4.11,4.11,0,0,1,1.84-.41,3.52,3.52,0,0,1,2.57,1V8.31Zm-2.49,7.28a2.31,2.31,0,0,0-.92-.73,2.72,2.72,0,0,0-1.07-.21,2.38,2.38,0,0,0-1,.21,2,2,0,0,0-.77.64,3.14,3.14,0,0,0-.5,1.09,6.44,6.44,0,0,0-.17,1.55,6.74,6.74,0,0,0,.15,1.54,3,3,0,0,0,.42,1,1.56,1.56,0,0,0,.66.57,2.1,2.1,0,0,0,.88.18,2.63,2.63,0,0,0,1.32-.32,3.94,3.94,0,0,0,1-.92Z"/><path class="cls-1" d="M219.58,12.79a5.65,5.65,0,0,1,2.1.37,4.5,4.5,0,0,1,2.64,2.73,6.39,6.39,0,0,1,.36,2.2,6.46,6.46,0,0,1-.36,2.22,4.75,4.75,0,0,1-1,1.68,4.54,4.54,0,0,1-1.61,1.07,6.14,6.14,0,0,1-4.2,0A4.5,4.5,0,0,1,215.86,22a4.92,4.92,0,0,1-1-1.68,6.46,6.46,0,0,1-.36-2.22,6.39,6.39,0,0,1,.36-2.2,4.79,4.79,0,0,1,1-1.67,4.61,4.61,0,0,1,1.62-1.06A5.65,5.65,0,0,1,219.58,12.79Zm0,8.73a2.18,2.18,0,0,0,1.91-.87,4.27,4.27,0,0,0,.62-2.54,4.31,4.31,0,0,0-.62-2.54,2.17,2.17,0,0,0-1.91-.88,2.2,2.2,0,0,0-1.93.88,4.35,4.35,0,0,0-.63,2.54,4.31,4.31,0,0,0,.63,2.54A2.22,2.22,0,0,0,219.58,21.52Z"/><path class="cls-1" d="M228.93,14.74a4.69,4.69,0,0,1,1.15-1.46,2.48,2.48,0,0,1,1.57-.53,1.91,1.91,0,0,1,1.15.32l-.16,1.86a.49.49,0,0,1-.14.26.42.42,0,0,1-.26.07,2.32,2.32,0,0,1-.45,0,3.9,3.9,0,0,0-.58-.05,2.07,2.07,0,0,0-.73.12,1.8,1.8,0,0,0-.58.35,2.24,2.24,0,0,0-.46.55,5.1,5.1,0,0,0-.36.74v6.36h-2.49V13h1.46a.81.81,0,0,1,.53.13.8.8,0,0,1,.2.49Z"/><path class="cls-1" d="M235.72,18.43A4.72,4.72,0,0,0,236,19.8a2.68,2.68,0,0,0,.58,1,2.25,2.25,0,0,0,.86.56,3,3,0,0,0,1.11.19,3.54,3.54,0,0,0,1-.14,4.6,4.6,0,0,0,.76-.31l.58-.32a1,1,0,0,1,.48-.14.51.51,0,0,1,.46.24l.72.9a4.44,4.44,0,0,1-.93.81,5.08,5.08,0,0,1-1.07.53,5.89,5.89,0,0,1-1.14.27,7.33,7.33,0,0,1-1.13.08,5.68,5.68,0,0,1-2-.35A4.39,4.39,0,0,1,234.72,22a5,5,0,0,1-1.08-1.73,6.79,6.79,0,0,1-.39-2.4,5.7,5.7,0,0,1,.34-2,4.59,4.59,0,0,1,2.54-2.71,5.15,5.15,0,0,1,2.08-.4,5.06,5.06,0,0,1,1.81.31,4,4,0,0,1,1.42.91,4.4,4.4,0,0,1,.93,1.47,5.57,5.57,0,0,1,.34,2,1.46,1.46,0,0,1-.13.76.5.5,0,0,1-.46.2Zm4.75-1.5a3.06,3.06,0,0,0-.14-.92,2.26,2.26,0,0,0-.4-.75,2.21,2.21,0,0,0-.69-.51,2.48,2.48,0,0,0-1-.18,2.28,2.28,0,0,0-1.69.61,3,3,0,0,0-.8,1.75Z"/><path class="cls-1" d="M250.88,15a.7.7,0,0,1-.22.23.55.55,0,0,1-.28.06.87.87,0,0,1-.39-.1l-.47-.22a4,4,0,0,0-.62-.23,2.88,2.88,0,0,0-.82-.1,1.9,1.9,0,0,0-1.16.31,1,1,0,0,0-.42.82.8.8,0,0,0,.22.56,2,2,0,0,0,.57.39,4.85,4.85,0,0,0,.82.31l.92.3c.31.11.62.23.92.37a3.12,3.12,0,0,1,.81.52,2.37,2.37,0,0,1,.57.76,2.35,2.35,0,0,1,.22,1.07,3.42,3.42,0,0,1-.27,1.37,2.83,2.83,0,0,1-.79,1.09,3.67,3.67,0,0,1-1.29.72,5.67,5.67,0,0,1-1.78.25,5.92,5.92,0,0,1-1-.09,6.14,6.14,0,0,1-1-.27,5.77,5.77,0,0,1-.87-.4,5.45,5.45,0,0,1-.7-.5l.58-.95a.72.72,0,0,1,.26-.26.74.74,0,0,1,.38-.09.78.78,0,0,1,.44.13l.48.28a4.36,4.36,0,0,0,.64.28,2.74,2.74,0,0,0,.93.13,2.41,2.41,0,0,0,.76-.1,1.77,1.77,0,0,0,.53-.28,1.09,1.09,0,0,0,.39-.87.84.84,0,0,0-.21-.59,2,2,0,0,0-.58-.41,6.28,6.28,0,0,0-.81-.3l-.94-.3a8.4,8.4,0,0,1-.94-.38,3.22,3.22,0,0,1-.81-.55,2.54,2.54,0,0,1-.58-.81,3.2,3.2,0,0,1,0-2.38,2.78,2.78,0,0,1,.74-1,3.51,3.51,0,0,1,1.22-.69,5.1,5.1,0,0,1,1.69-.25,5,5,0,0,1,1.94.35,4.39,4.39,0,0,1,1.46.92Z"/><path class="cls-1" d="M44.66,15.76c0-8-10-14.55-22.33-14.55S0,7.74,0,15.76v.85C0,25.11,8.74,32,22.33,32s22.33-6.89,22.33-15.39Z"/><path class="cls-2" d="M43.81,15.75c0,7.56-9.61,13.68-21.47,13.68S.87,23.31.87,15.75,10.48,2.07,22.34,2.07,43.81,8.19,43.81,15.75Z"/><path class="cls-3" d="M1.11,20.42a12.71,12.71,0,0,0,2.07,3.26c.46-.87.49-1.34,1-1.52.72-.27,1,.11,3.37.42,3.75.5,5.38.65,11.92.07,4.73-.42,1.55-5.5.47-8.22S17.71,9.3,17.07,7.92A14.71,14.71,0,0,0,14.56,4c-1.08-1.16-3-3-3.49-3.47s-1.48.29-1.83.59S6.82,2.36,7.49,3.27a2.91,2.91,0,0,0,.6.74c.27.2-1.53-.54-1.53.52s1.65.88,2.12,1.08.93.2,1.45.47a4.75,4.75,0,0,0,2,.59c.67,0,.91-.37,1.26.51a11.73,11.73,0,0,1,1.06,5A18.32,18.32,0,0,0,14.91,18S7,14.23.56,15.48C.56,15.48.32,18.7,1.11,20.42Z"/><path class="cls-1" d="M3.28,24.35,2.9,24A13.25,13.25,0,0,1,.76,20.58h0c-.83-1.78-.6-5-.59-5.13l0-.3.29-.05C5.89,14,12.17,16.36,14.32,17.26a22.9,22.9,0,0,1-.22-5.15,10.8,10.8,0,0,0-1-4.59l-.08-.19C12.94,7,12.87,7,12.87,7l-.22,0a2.58,2.58,0,0,1-.47.06A5.18,5.18,0,0,1,10,6.43a3.19,3.19,0,0,0-.75-.26A4,4,0,0,1,8.52,6a2.46,2.46,0,0,0-.46-.08c-.66-.08-1.89-.24-1.89-1.36a.91.91,0,0,1,.32-.75,1.2,1.2,0,0,1,.71-.23l0-.07A1,1,0,0,1,7,2.7C7.13,2,8.05,1.41,8.65,1L9,.83c1.23-1.06,1.94-.91,2.32-.6.57.46,2.47,2.37,3.54,3.52a14.76,14.76,0,0,1,2.58,4l.12.25c.64,1.39,1.72,3.71,2.75,6.28.16.4.36.85.58,1.34.92,2,2.07,4.54,1.16,6.11A3.05,3.05,0,0,1,19.49,23c-6.57.58-8.21.44-12-.07-1-.13-1.64-.28-2.1-.38-.62-.14-.78-.17-1.08-.06s-.24.18-.44.65c-.09.19-.19.42-.33.69Zm-1.81-4.1A14.56,14.56,0,0,0,3.09,23l.05-.1c.21-.49.38-.89.89-1.07a2.4,2.4,0,0,1,1.52,0c.45.1,1.06.24,2,.37,3.73.5,5.35.64,11.83.07a2.3,2.3,0,0,0,1.94-.92c.71-1.21-.35-3.53-1.19-5.39-.23-.49-.44-.95-.6-1.37-1-2.55-2.09-4.86-2.74-6.24l-.11-.25a14.32,14.32,0,0,0-2.45-3.81c-1.12-1.2-3-3-3.45-3.44-.2-.16-.73.08-1.32.59a3.49,3.49,0,0,1-.44.28c-.39.25-1.22.76-1.3,1.14a.23.23,0,0,0,0,.19l0,0a2.45,2.45,0,0,0,.47.62.41.41,0,0,1,.16.51c-.13.3-.44.24-.61.21-.47-.1-.77-.1-.87,0s0,.07,0,.14c0,.33.28.46,1.21.58a2.31,2.31,0,0,1,.67.14,4,4,0,0,0,.55.16,3.81,3.81,0,0,1,.93.32,4.23,4.23,0,0,0,1.84.54,2.1,2.1,0,0,0,.37,0c.49-.09.93-.09,1.28.81l.07.19a11.64,11.64,0,0,1,1,4.93,17.84,17.84,0,0,0,.4,5.64l.36.92-.89-.42c-.08,0-7.62-3.53-13.82-2.48a11.51,11.51,0,0,0,.54,4.43Z"/><path class="cls-1" d="M7.34,4.33a3.8,3.8,0,0,1,1.29.32c.38.19.56.39.93.24l.17-.06c.85-.31.85-.31,1.45.36s.88.66,1.26.45c-.48-.47-1-.94-1.47-1.46s-.55-.81-.09-1.49l-.07-.1c-.15.12-.32.24-.47.37a3.58,3.58,0,0,0-.29.27,1.61,1.61,0,0,1-.31-.39,2.41,2.41,0,0,0-.19-.55l-.09,1-.5,0,.44.19-.05.32c.51-.35.81-.55,1,.32-.38.11-.68.17-1.07.26S8.22,3.61,8,3.42"/><path class="cls-3" d="M43.26,20.35a12.56,12.56,0,0,1-2,3.28c-.46-.87-.5-1.34-1-1.52-.72-.26-1,.12-3.36.45-3.75.53-5.38.68-11.92.14-4.74-.39-1.59-5.48-.53-8.21S26.59,9.35,27.22,8A14.9,14.9,0,0,1,29.7,4C30.78,2.87,32.64,1,33.18.54s1.48.28,1.82.58,2.43,1.21,1.77,2.13a3.22,3.22,0,0,1-.59.75c-.27.19,1.52-.56,1.53.5s-1.64.89-2.11,1.09-.93.21-1.45.48a4.59,4.59,0,0,1-2,.61c-.68,0-.92-.37-1.26.52a11.66,11.66,0,0,0-1,5A18.12,18.12,0,0,1,29.44,18s8.38-3.84,14.84-2.63A19.2,19.2,0,0,1,43.26,20.35Z"/><path class="cls-1" d="M41.11,24.3l-.25-.48c-.14-.27-.24-.5-.33-.69-.21-.47-.27-.58-.45-.65s-.46-.07-1.07.07a19.79,19.79,0,0,1-2.11.4c-3.79.53-5.43.69-12,.14a3,3,0,0,1-2.56-1.28c-.92-1.56.21-4.09,1.12-6.12.21-.48.42-.94.58-1.34,1-2.58,2.07-4.91,2.7-6.3l.12-.25a15,15,0,0,1,2.55-4c1.06-1.15,3-3.07,3.52-3.54.38-.31,1.09-.46,2.33.59l.33.21c.61.36,1.53.92,1.68,1.64a1,1,0,0,1-.17.79l0,.06a1.18,1.18,0,0,1,.72.24.91.91,0,0,1,.32.73c0,1.13-1.22,1.29-1.88,1.38a2.61,2.61,0,0,0-.47.09,4.6,4.6,0,0,1-.67.2,3.71,3.71,0,0,0-.75.26,5.06,5.06,0,0,1-2.23.65A2.71,2.71,0,0,1,31.63,7a1,1,0,0,0-.22,0h0s-.07,0-.19.35l-.07.19a11,11,0,0,0-.93,4.6,21.85,21.85,0,0,1-.2,5.16,41.43,41.43,0,0,1,4.31-1.47c4.87-1.36,8.14-1.22,10-.87l.35.07,0,.35a19,19,0,0,1-1.06,5.15h0a13.11,13.11,0,0,1-2.12,3.39Zm-1.37-2.67a1.7,1.7,0,0,1,.6.11c.52.19.69.58.91,1.07l0,.1a14.94,14.94,0,0,0,1.6-2.72h0a17.33,17.33,0,0,0,1-4.52c-6.22-1-14.17,2.62-14.26,2.66l-.87.4.34-.9a18.05,18.05,0,0,0,.37-5.64,11.59,11.59,0,0,1,1-4.94l.07-.19c.34-.9.78-.91,1.27-.82a2.1,2.1,0,0,0,.37,0A4.18,4.18,0,0,0,34,5.72a4.36,4.36,0,0,1,.94-.32,3.09,3.09,0,0,0,.54-.17,3.36,3.36,0,0,1,.68-.14c.92-.12,1.2-.26,1.2-.59a.18.18,0,0,0,0-.13c-.1-.09-.4-.08-.87,0-.17,0-.48.1-.62-.21a.4.4,0,0,1,.16-.5,2.46,2.46,0,0,0,.47-.63l0,0a.23.23,0,0,0,0-.19c-.08-.38-.91-.89-1.31-1.13a3.49,3.49,0,0,1-.44-.28c-.6-.51-1.13-.74-1.32-.58-.49.4-2.32,2.25-3.44,3.46a14.16,14.16,0,0,0-2.41,3.83l-.12.25c-.63,1.38-1.69,3.7-2.69,6.25-.16.42-.37.89-.59,1.38-.84,1.87-1.88,4.19-1.16,5.4a2.29,2.29,0,0,0,1.94.9c6.49.54,8.11.38,11.83-.14a20.49,20.49,0,0,0,2-.38A4.6,4.6,0,0,1,39.74,21.63Z"/><path class="cls-1" d="M36.93,4.31a3.68,3.68,0,0,0-1.29.33c-.38.19-.56.39-.93.24l-.17-.06c-.85-.31-.85-.31-1.45.37s-.87.67-1.26.46c.48-.48,1-.94,1.47-1.47s.54-.81.08-1.49l.06-.1.48.36c.1.08.19.18.29.27a1.79,1.79,0,0,0,.31-.38,2.32,2.32,0,0,1,.19-.56l.09,1,.5,0-.44.19.06.32c-.52-.35-.82-.54-1,.32.38.12.67.17,1.06.26s1.07-.78,1.26-1"/><path class="cls-1" d="M40.87,8.83a10.2,10.2,0,0,1,2.94,6.92c0,7.56-9.61,13.68-21.47,13.68S.87,23.31.87,15.75a9.45,9.45,0,0,1,1.21-4.56l-1,.07A10.12,10.12,0,0,0,0,15.76v.85C0,25.11,8.74,32,22.33,32s22.33-6.89,22.33-15.39v-.85A10.76,10.76,0,0,0,42,8.83Z"/></svg>