<svg id="Capa_1" data-name="Capa 1" xmlns="http://www.w3.org/2000/svg" viewBox="0 0 249 32"><defs><style>.cls-1{fill:#2d3277;}.cls-2{fill:#ffd100;}.cls-3{fill:#fff;}</style></defs><path class="cls-1" d="M44.66,15.76c0-8-10-14.55-22.33-14.55S0,7.74,0,15.76v.85C0,25.11,8.74,32,22.33,32s22.33-6.89,22.33-15.39Z"/><path class="cls-2" d="M43.81,15.75c0,7.56-9.61,13.68-21.47,13.68S.87,23.31.87,15.75,10.48,2.07,22.34,2.07,43.81,8.19,43.81,15.75Z"/><path class="cls-3" d="M1.11,20.42a12.71,12.71,0,0,0,2.07,3.26c.46-.87.49-1.34,1-1.52.72-.27,1,.11,3.37.42,3.75.5,5.38.65,11.92.07,4.73-.42,1.55-5.5.47-8.22S17.71,9.3,17.07,7.92A14.71,14.71,0,0,0,14.56,4c-1.08-1.16-3-3-3.49-3.47s-1.48.29-1.83.59S6.82,2.36,7.49,3.27a2.91,2.91,0,0,0,.6.74c.27.2-1.53-.54-1.53.52s1.65.88,2.12,1.08.93.2,1.45.47a4.75,4.75,0,0,0,2,.59c.67,0,.91-.37,1.26.51a11.73,11.73,0,0,1,1.06,5A18.32,18.32,0,0,0,14.91,18S7,14.23.56,15.48C.56,15.48.32,18.7,1.11,20.42Z"/><path class="cls-1" d="M3.28,24.35,2.9,24A13.25,13.25,0,0,1,.76,20.58h0c-.83-1.78-.6-5-.59-5.13l0-.3.29-.05C5.89,14,12.17,16.36,14.32,17.26a22.9,22.9,0,0,1-.22-5.15,10.8,10.8,0,0,0-1-4.59l-.08-.19C12.94,7,12.87,7,12.87,7l-.22,0a2.58,2.58,0,0,1-.47.06A5.18,5.18,0,0,1,10,6.43a3.19,3.19,0,0,0-.75-.26A4,4,0,0,1,8.52,6a2.46,2.46,0,0,0-.46-.08c-.66-.08-1.89-.24-1.89-1.36a.91.91,0,0,1,.32-.75,1.2,1.2,0,0,1,.71-.23l0-.07A1,1,0,0,1,7,2.7C7.13,2,8.05,1.41,8.65,1L9,.83c1.23-1.06,1.94-.91,2.32-.6.57.46,2.47,2.37,3.54,3.52a14.76,14.76,0,0,1,2.58,4l.12.25c.64,1.39,1.72,3.71,2.75,6.28.16.4.36.85.58,1.34.92,2,2.07,4.54,1.16,6.11A3.05,3.05,0,0,1,19.49,23c-6.57.58-8.21.44-12-.07-1-.13-1.64-.28-2.1-.38-.62-.14-.78-.17-1.08-.06s-.24.18-.44.65c-.09.19-.19.42-.33.69Zm-1.81-4.1A14.56,14.56,0,0,0,3.09,23l.05-.1c.21-.49.38-.89.89-1.07a2.4,2.4,0,0,1,1.52,0c.45.1,1.06.24,2,.37,3.73.5,5.35.64,11.83.07a2.3,2.3,0,0,0,1.94-.92c.71-1.21-.35-3.53-1.19-5.39-.23-.49-.44-.95-.6-1.37-1-2.55-2.09-4.86-2.74-6.24l-.11-.25a14.32,14.32,0,0,0-2.45-3.81c-1.12-1.2-3-3-3.45-3.44-.2-.16-.73.08-1.32.59a3.49,3.49,0,0,1-.44.28c-.39.25-1.22.76-1.3,1.14a.23.23,0,0,0,0,.19l0,0a2.45,2.45,0,0,0,.47.62.41.41,0,0,1,.16.51c-.13.3-.44.24-.61.21-.47-.1-.77-.1-.87,0s0,.07,0,.14c0,.33.28.46,1.21.58a2.31,2.31,0,0,1,.67.14,4,4,0,0,0,.55.16,3.81,3.81,0,0,1,.93.32,4.23,4.23,0,0,0,1.84.54,2.1,2.1,0,0,0,.37,0c.49-.09.93-.09,1.28.81l.07.19a11.64,11.64,0,0,1,1,4.93,17.84,17.84,0,0,0,.4,5.64l.36.92-.89-.42c-.08,0-7.62-3.53-13.82-2.48a11.51,11.51,0,0,0,.54,4.43Z"/><path class="cls-1" d="M7.34,4.33a3.8,3.8,0,0,1,1.29.32c.38.19.56.39.93.24l.17-.06c.85-.31.85-.31,1.45.36s.88.66,1.26.45c-.48-.47-1-.94-1.47-1.46s-.55-.81-.09-1.49l-.07-.1c-.15.12-.32.24-.47.37a3.58,3.58,0,0,0-.29.27,1.61,1.61,0,0,1-.31-.39,2.41,2.41,0,0,0-.19-.55l-.09,1-.5,0,.44.19-.05.32c.51-.35.81-.55,1,.32-.38.11-.68.17-1.07.26S8.22,3.61,8,3.42"/><path class="cls-3" d="M43.26,20.35a12.56,12.56,0,0,1-2,3.28c-.46-.87-.5-1.34-1-1.52-.72-.26-1,.12-3.36.45-3.75.53-5.38.68-11.92.14-4.74-.39-1.59-5.48-.53-8.21S26.59,9.35,27.22,8A14.9,14.9,0,0,1,29.7,4C30.78,2.87,32.64,1,33.18.54s1.48.28,1.82.58,2.43,1.21,1.77,2.13a3.22,3.22,0,0,1-.59.75c-.27.19,1.52-.56,1.53.5s-1.64.89-2.11,1.09-.93.21-1.45.48a4.59,4.59,0,0,1-2,.61c-.68,0-.92-.37-1.26.52a11.66,11.66,0,0,0-1,5A18.12,18.12,0,0,1,29.44,18s8.38-3.84,14.84-2.63A19.2,19.2,0,0,1,43.26,20.35Z"/><path class="cls-1" d="M41.11,24.3l-.25-.48c-.14-.27-.24-.5-.33-.69-.21-.47-.27-.58-.45-.65s-.46-.07-1.07.07a19.79,19.79,0,0,1-2.11.4c-3.79.53-5.43.69-12,.14a3,3,0,0,1-2.56-1.28c-.92-1.56.21-4.09,1.12-6.12.21-.48.42-.94.58-1.34,1-2.58,2.07-4.91,2.7-6.3l.12-.25a15,15,0,0,1,2.55-4c1.06-1.15,3-3.07,3.52-3.54.38-.31,1.09-.46,2.33.59l.33.21c.61.36,1.53.92,1.68,1.64a1,1,0,0,1-.17.79l0,.06a1.18,1.18,0,0,1,.72.24.91.91,0,0,1,.32.73c0,1.13-1.22,1.29-1.88,1.38a2.61,2.61,0,0,0-.47.09,4.6,4.6,0,0,1-.67.2,3.71,3.71,0,0,0-.75.26,5.06,5.06,0,0,1-2.23.65A2.71,2.71,0,0,1,31.63,7a1,1,0,0,0-.22,0h0s-.07,0-.19.35l-.07.19a11,11,0,0,0-.93,4.6,21.85,21.85,0,0,1-.2,5.16,41.43,41.43,0,0,1,4.31-1.47c4.87-1.36,8.14-1.22,10-.87l.35.07,0,.35a19,19,0,0,1-1.06,5.15h0a13.11,13.11,0,0,1-2.12,3.39Zm-1.37-2.67a1.7,1.7,0,0,1,.6.11c.52.19.69.58.91,1.07l0,.1a14.94,14.94,0,0,0,1.6-2.72h0a17.33,17.33,0,0,0,1-4.52c-6.22-1-14.17,2.62-14.26,2.66l-.87.4.34-.9a18.05,18.05,0,0,0,.37-5.64,11.59,11.59,0,0,1,1-4.94l.07-.19c.34-.9.78-.91,1.27-.82a2.1,2.1,0,0,0,.37,0A4.18,4.18,0,0,0,34,5.72a4.36,4.36,0,0,1,.94-.32,3.09,3.09,0,0,0,.54-.17,3.36,3.36,0,0,1,.68-.14c.92-.12,1.2-.26,1.2-.59a.18.18,0,0,0,0-.13c-.1-.09-.4-.08-.87,0-.17,0-.48.1-.62-.21a.4.4,0,0,1,.16-.5,2.46,2.46,0,0,0,.47-.63l0,0a.23.23,0,0,0,0-.19c-.08-.38-.91-.89-1.31-1.13a3.49,3.49,0,0,1-.44-.28c-.6-.51-1.13-.74-1.32-.58-.49.4-2.32,2.25-3.44,3.46a14.16,14.16,0,0,0-2.41,3.83l-.12.25c-.63,1.38-1.69,3.7-2.69,6.25-.16.42-.37.89-.59,1.38-.84,1.87-1.88,4.19-1.16,5.4a2.29,2.29,0,0,0,1.94.9c6.49.54,8.11.38,11.83-.14a20.49,20.49,0,0,0,2-.38A4.6,4.6,0,0,1,39.74,21.63Z"/><path class="cls-1" d="M36.93,4.31a3.68,3.68,0,0,0-1.29.33c-.38.19-.56.39-.93.24l-.17-.06c-.85-.31-.85-.31-1.45.37s-.87.67-1.26.46c.48-.48,1-.94,1.47-1.47s.54-.81.08-1.49l.06-.1.48.36c.1.08.19.18.29.27a1.79,1.79,0,0,0,.31-.38,2.32,2.32,0,0,1,.19-.56l.09,1,.5,0-.44.19.06.32c-.52-.35-.82-.54-1,.32.38.12.67.17,1.06.26s1.07-.78,1.26-1"/><path class="cls-1" d="M40.87,8.83a10.2,10.2,0,0,1,2.94,6.92c0,7.56-9.61,13.68-21.47,13.68S.87,23.31.87,15.75a9.45,9.45,0,0,1,1.21-4.56l-1,.07A10.12,10.12,0,0,0,0,15.76v.85C0,25.11,8.74,32,22.33,32s22.33-6.89,22.33-15.39v-.85A10.76,10.76,0,0,0,42,8.83Z"/><path class="cls-1" d="M62.51,19.78a.51.51,0,0,1,.39.18L64,21.11a5.84,5.84,0,0,1-2.17,1.67,7.44,7.44,0,0,1-3.09.58,7.28,7.28,0,0,1-2.9-.55,6.49,6.49,0,0,1-2.2-1.53,6.83,6.83,0,0,1-1.4-2.35,8.89,8.89,0,0,1-.48-3,8.2,8.2,0,0,1,.52-3,6.7,6.7,0,0,1,1.47-2.34A6.46,6.46,0,0,1,56,9.1a7.35,7.35,0,0,1,2.9-.55,7.26,7.26,0,0,1,2.81.52,6.71,6.71,0,0,1,2.09,1.37l-.9,1.25a.7.7,0,0,1-.21.21.57.57,0,0,1-.34.09A.61.61,0,0,1,62,11.9a1.9,1.9,0,0,1-.35-.21l-.44-.27a4.08,4.08,0,0,0-.59-.28,5.45,5.45,0,0,0-.76-.21,6,6,0,0,0-1-.08,4.48,4.48,0,0,0-1.78.34,4,4,0,0,0-1.39,1,4.92,4.92,0,0,0-.9,1.61A6.82,6.82,0,0,0,54.47,16a6.33,6.33,0,0,0,.35,2.17,4.72,4.72,0,0,0,.93,1.6,4,4,0,0,0,1.4,1,4.3,4.3,0,0,0,1.72.35,7.57,7.57,0,0,0,1-.06,4.7,4.7,0,0,0,.82-.19,3.57,3.57,0,0,0,.71-.34,4.85,4.85,0,0,0,.67-.5.8.8,0,0,1,.21-.15A.46.46,0,0,1,62.51,19.78Z"/><path class="cls-1" d="M67.12,18.37a4.73,4.73,0,0,0,.28,1.37,2.88,2.88,0,0,0,.58,1,2.25,2.25,0,0,0,.86.56,2.94,2.94,0,0,0,1.09.19,3.54,3.54,0,0,0,1-.14,6.28,6.28,0,0,0,.76-.31l.57-.31a.93.93,0,0,1,.48-.14.49.49,0,0,1,.46.23l.71.9a4.15,4.15,0,0,1-.92.81A5.56,5.56,0,0,1,72,23a5.63,5.63,0,0,1-1.13.27,7.2,7.2,0,0,1-1.12.08,5.62,5.62,0,0,1-2-.35,4.35,4.35,0,0,1-1.6-1.06A4.76,4.76,0,0,1,65,20.22a6.67,6.67,0,0,1-.39-2.38,5.88,5.88,0,0,1,.34-2,4.87,4.87,0,0,1,1-1.61,4.57,4.57,0,0,1,1.55-1.09,5.1,5.1,0,0,1,2.07-.4,5,5,0,0,1,1.8.31A4,4,0,0,1,72.8,14a4.35,4.35,0,0,1,.93,1.46,5.55,5.55,0,0,1,.33,2,1.64,1.64,0,0,1-.12.76.49.49,0,0,1-.46.19Zm4.72-1.49A3,3,0,0,0,71.7,16a2.12,2.12,0,0,0-.4-.74,1.78,1.78,0,0,0-.69-.51,2.43,2.43,0,0,0-1-.19,2.31,2.31,0,0,0-1.69.62,2.94,2.94,0,0,0-.78,1.73Z"/><path class="cls-1" d="M78.23,14.18a7.09,7.09,0,0,1,.66-.57,3.68,3.68,0,0,1,.73-.45,3.62,3.62,0,0,1,.82-.29,4.23,4.23,0,0,1,1-.11,3.7,3.7,0,0,1,1.49.29,2.92,2.92,0,0,1,1.09.8,3.46,3.46,0,0,1,.66,1.23,5.25,5.25,0,0,1,.22,1.58V23.2H82.4V16.66A2.25,2.25,0,0,0,82,15.2a1.64,1.64,0,0,0-1.32-.52,2.54,2.54,0,0,0-1.2.3,4.06,4.06,0,0,0-1.06.79V23.2H75.92V12.92h1.51a.61.61,0,0,1,.63.45Z"/><path class="cls-1" d="M90.5,23.36a2.69,2.69,0,0,1-2-.75,2.93,2.93,0,0,1-.72-2.09V14.77h-1a.45.45,0,0,1-.34-.13.47.47,0,0,1-.14-.39v-1L87.85,13l.52-2.8a.52.52,0,0,1,.55-.43H90.2V13H93v1.76H90.2v5.58a1.09,1.09,0,0,0,.24.75.82.82,0,0,0,.65.27,1,1,0,0,0,.38-.06,1.16,1.16,0,0,0,.27-.11l.21-.12a.41.41,0,0,1,.18,0,.35.35,0,0,1,.18,0,.65.65,0,0,1,.15.17l.74,1.2a3.65,3.65,0,0,1-1.24.68A4.46,4.46,0,0,1,90.5,23.36Z"/><path class="cls-1" d="M96.87,14.7A4.44,4.44,0,0,1,98,13.26a2.43,2.43,0,0,1,1.56-.53,1.91,1.91,0,0,1,1.15.31l-.17,1.85a.46.46,0,0,1-.14.26.4.4,0,0,1-.26.08,3.25,3.25,0,0,1-.44-.05,2.9,2.9,0,0,0-.58,0,2.07,2.07,0,0,0-.73.12,1.88,1.88,0,0,0-.58.34,2.25,2.25,0,0,0-.45.55,4.51,4.51,0,0,0-.36.73V23.2H94.53V12.92H96a.8.8,0,0,1,.53.14.83.83,0,0,1,.2.48Z"/><path class="cls-1" d="M106.27,12.76a5.58,5.58,0,0,1,2.08.37A4.47,4.47,0,0,1,111,15.85a6.29,6.29,0,0,1,.36,2.19,6.4,6.4,0,0,1-.36,2.21,4.8,4.8,0,0,1-1,1.67,4.62,4.62,0,0,1-1.6,1.06,5.58,5.58,0,0,1-2.08.37,5.65,5.65,0,0,1-2.1-.37,4.56,4.56,0,0,1-1.61-1.06,5,5,0,0,1-1-1.67,6.4,6.4,0,0,1-.36-2.21,6.29,6.29,0,0,1,.36-2.19,4.86,4.86,0,0,1,1-1.67,4.68,4.68,0,0,1,1.61-1A5.65,5.65,0,0,1,106.27,12.76Zm0,8.69a2.21,2.21,0,0,0,1.9-.86,4.36,4.36,0,0,0,.61-2.53,4.36,4.36,0,0,0-.61-2.53,2.52,2.52,0,0,0-3.83,0,4.32,4.32,0,0,0-.63,2.53,4.26,4.26,0,0,0,.63,2.52A2.21,2.21,0,0,0,106.27,21.45Z"/><path class="cls-1" d="M127,8.31V23.2h-1.52a.59.59,0,0,1-.62-.45l-.21-1a5.21,5.21,0,0,1-1.42,1.15,3.81,3.81,0,0,1-1.88.44A3.31,3.31,0,0,1,118.63,22a4.91,4.91,0,0,1-.79-1.64,8.57,8.57,0,0,1-.27-2.25,6.88,6.88,0,0,1,.31-2.12,5.14,5.14,0,0,1,.89-1.71,4.17,4.17,0,0,1,1.39-1.12,4.07,4.07,0,0,1,1.83-.41,3.64,3.64,0,0,1,1.47.27,3.86,3.86,0,0,1,1.09.73V8.31Zm-2.48,7.24a2.42,2.42,0,0,0-.91-.72,2.6,2.6,0,0,0-1.07-.22,2.21,2.21,0,0,0-1,.22,2.13,2.13,0,0,0-.78.63,3.37,3.37,0,0,0-.49,1.08,6.44,6.44,0,0,0-.17,1.55,6.7,6.7,0,0,0,.15,1.53,2.82,2.82,0,0,0,.42,1,1.49,1.49,0,0,0,.66.57,2.05,2.05,0,0,0,.87.18,2.57,2.57,0,0,0,1.31-.32,4.08,4.08,0,0,0,1-.91Z"/><path class="cls-1" d="M131.38,18.37a4.73,4.73,0,0,0,.28,1.37,2.72,2.72,0,0,0,.58,1,2.21,2.21,0,0,0,.85.56,3,3,0,0,0,1.1.19,3.54,3.54,0,0,0,1-.14A6.28,6.28,0,0,0,136,21l.57-.31a.91.91,0,0,1,.48-.14.5.5,0,0,1,.46.23l.71.9a4.15,4.15,0,0,1-.92.81,5.56,5.56,0,0,1-1.07.52,5.63,5.63,0,0,1-1.13.27,7.29,7.29,0,0,1-1.12.08,5.62,5.62,0,0,1-2-.35,4.47,4.47,0,0,1-1.61-1.06,4.88,4.88,0,0,1-1.07-1.72,6.67,6.67,0,0,1-.39-2.38,5.64,5.64,0,0,1,.34-2,4.71,4.71,0,0,1,1-1.61,4.57,4.57,0,0,1,1.55-1.09,5.06,5.06,0,0,1,2.07-.4,4.91,4.91,0,0,1,1.79.31,4,4,0,0,1,1.42.91,4.18,4.18,0,0,1,.92,1.46,5.34,5.34,0,0,1,.34,2,1.64,1.64,0,0,1-.12.76.49.49,0,0,1-.46.19Zm4.72-1.49A3,3,0,0,0,136,16a2.14,2.14,0,0,0-.41-.74,1.75,1.75,0,0,0-.68-.51,2.43,2.43,0,0,0-1-.19,2.3,2.3,0,0,0-1.69.62,2.94,2.94,0,0,0-.78,1.73Z"/><path class="cls-1" d="M153.83,12.92,149.75,23.2h-2.24l-4.08-10.28h2a.76.76,0,0,1,.46.13.67.67,0,0,1,.25.33l2,5.49c.11.32.2.64.28.94s.15.62.21.93c.07-.31.14-.62.22-.93s.18-.62.29-.94l2-5.49a.67.67,0,0,1,.25-.33.69.69,0,0,1,.43-.13Z"/><path class="cls-1" d="M156.73,18.37a4.73,4.73,0,0,0,.28,1.37,2.88,2.88,0,0,0,.58,1,2.25,2.25,0,0,0,.86.56,2.94,2.94,0,0,0,1.09.19,3.54,3.54,0,0,0,1-.14,5.67,5.67,0,0,0,.76-.31l.57-.31a.93.93,0,0,1,.48-.14.49.49,0,0,1,.46.23l.71.9a4.15,4.15,0,0,1-.92.81,5.56,5.56,0,0,1-1.07.52,5.63,5.63,0,0,1-1.13.27,7.2,7.2,0,0,1-1.12.08,5.62,5.62,0,0,1-2-.35,4.35,4.35,0,0,1-1.6-1.06,4.76,4.76,0,0,1-1.08-1.72,6.67,6.67,0,0,1-.39-2.38,5.88,5.88,0,0,1,.34-2,4.87,4.87,0,0,1,1-1.61,4.57,4.57,0,0,1,1.55-1.09,5.06,5.06,0,0,1,2.07-.4,5,5,0,0,1,1.8.31,3.94,3.94,0,0,1,1.41.91,4.35,4.35,0,0,1,.93,1.46,5.55,5.55,0,0,1,.33,2,1.64,1.64,0,0,1-.12.76.49.49,0,0,1-.46.19Zm4.72-1.49a3,3,0,0,0-.14-.91,2.12,2.12,0,0,0-.4-.74,1.78,1.78,0,0,0-.69-.51,2.43,2.43,0,0,0-1-.19,2.31,2.31,0,0,0-1.69.62,2.94,2.94,0,0,0-.78,1.73Z"/><path class="cls-1" d="M167.84,14.18a7.09,7.09,0,0,1,.66-.57,3.68,3.68,0,0,1,.73-.45,3.8,3.8,0,0,1,.82-.29,4.23,4.23,0,0,1,1-.11,3.7,3.7,0,0,1,1.49.29,2.92,2.92,0,0,1,1.09.8,3.46,3.46,0,0,1,.66,1.23,5.25,5.25,0,0,1,.22,1.58V23.2H172V16.66a2.25,2.25,0,0,0-.43-1.46,1.64,1.64,0,0,0-1.32-.52,2.54,2.54,0,0,0-1.2.3,4.06,4.06,0,0,0-1.06.79V23.2h-2.47V12.92H167a.61.61,0,0,1,.63.45Z"/><path class="cls-1" d="M185.76,8.31V23.2h-1.52a.59.59,0,0,1-.62-.45l-.21-1A5.1,5.1,0,0,1,182,22.91a3.76,3.76,0,0,1-1.88.44,3.32,3.32,0,0,1-1.54-.35,3.36,3.36,0,0,1-1.21-1,5.1,5.1,0,0,1-.78-1.64,8.57,8.57,0,0,1-.27-2.25,6.88,6.88,0,0,1,.31-2.12,5,5,0,0,1,.89-1.71,4.17,4.17,0,0,1,1.39-1.12,4,4,0,0,1,1.83-.41,3.64,3.64,0,0,1,1.47.27,3.86,3.86,0,0,1,1.09.73V8.31Zm-2.48,7.24a2.44,2.44,0,0,0-.92-.72,2.52,2.52,0,0,0-1.06-.22,2.28,2.28,0,0,0-1,.22,2.1,2.1,0,0,0-.77.63,3.37,3.37,0,0,0-.49,1.08,6.44,6.44,0,0,0-.17,1.55,6.7,6.7,0,0,0,.15,1.53,2.82,2.82,0,0,0,.41,1,1.49,1.49,0,0,0,.66.57,2.13,2.13,0,0,0,.88.18,2.57,2.57,0,0,0,1.31-.32,4.08,4.08,0,0,0,1-.91Z"/><path class="cls-1" d="M190.1,18.37a5.09,5.09,0,0,0,.28,1.37,2.9,2.9,0,0,0,.59,1,2.21,2.21,0,0,0,.85.56,3,3,0,0,0,1.1.19,3.54,3.54,0,0,0,1-.14,6.28,6.28,0,0,0,.76-.31l.57-.31a.88.88,0,0,1,.48-.14.5.5,0,0,1,.46.23l.71.9a4.39,4.39,0,0,1-.92.81A5.56,5.56,0,0,1,195,23a5.63,5.63,0,0,1-1.13.27,7.29,7.29,0,0,1-1.12.08,5.58,5.58,0,0,1-2-.35,4.47,4.47,0,0,1-1.61-1.06A4.88,4.88,0,0,1,188,20.22a6.67,6.67,0,0,1-.39-2.38,5.64,5.64,0,0,1,.34-2,4.71,4.71,0,0,1,1-1.61,4.57,4.57,0,0,1,1.55-1.09,5.06,5.06,0,0,1,2.07-.4,4.91,4.91,0,0,1,1.79.31,4,4,0,0,1,1.42.91,4.18,4.18,0,0,1,.92,1.46,5.34,5.34,0,0,1,.34,2,1.64,1.64,0,0,1-.12.76.5.5,0,0,1-.46.19Zm4.72-1.49a3,3,0,0,0-.13-.91,2.14,2.14,0,0,0-.41-.74,1.82,1.82,0,0,0-.68-.51,2.43,2.43,0,0,0-1-.19,2.28,2.28,0,0,0-1.69.62,3,3,0,0,0-.79,1.73Z"/><path class="cls-1" d="M207.83,8.31V23.2h-1.51a.57.57,0,0,1-.62-.45l-.21-1a5.25,5.25,0,0,1-1.43,1.15,3.81,3.81,0,0,1-1.88.44,3.29,3.29,0,0,1-1.54-.35,3.36,3.36,0,0,1-1.21-1,4.72,4.72,0,0,1-.78-1.64,8.15,8.15,0,0,1-.28-2.25,6.88,6.88,0,0,1,.31-2.12,5.33,5.33,0,0,1,.89-1.71,4.21,4.21,0,0,1,1.4-1.12,4,4,0,0,1,1.82-.41,3.61,3.61,0,0,1,1.47.27,4.06,4.06,0,0,1,1.1.73V8.31Zm-2.47,7.24a2.52,2.52,0,0,0-.92-.72,2.56,2.56,0,0,0-1.07-.22,2.23,2.23,0,0,0-1,.22,2,2,0,0,0-.77.63,3,3,0,0,0-.49,1.08,6,6,0,0,0-.17,1.55,6.76,6.76,0,0,0,.14,1.53,3,3,0,0,0,.42,1,1.49,1.49,0,0,0,.66.57,2.05,2.05,0,0,0,.87.18,2.57,2.57,0,0,0,1.31-.32,4.29,4.29,0,0,0,1-.91Z"/><path class="cls-1" d="M214.82,12.76a5.51,5.51,0,0,1,2.08.37,4.4,4.4,0,0,1,2.63,2.72,6.29,6.29,0,0,1,.36,2.19,6.4,6.4,0,0,1-.36,2.21,4.78,4.78,0,0,1-1,1.67A4.56,4.56,0,0,1,216.9,23a5.51,5.51,0,0,1-2.08.37,5.63,5.63,0,0,1-2.09-.37,4.56,4.56,0,0,1-1.61-1.06,4.8,4.8,0,0,1-1-1.67,6.4,6.4,0,0,1-.37-2.21,6.28,6.28,0,0,1,.37-2.19,4.45,4.45,0,0,1,2.64-2.72A5.63,5.63,0,0,1,214.82,12.76Zm0,8.69a2.18,2.18,0,0,0,1.9-.86,4.35,4.35,0,0,0,.62-2.53,4.35,4.35,0,0,0-.62-2.53,2.17,2.17,0,0,0-1.9-.88,2.21,2.21,0,0,0-1.92.88,4.32,4.32,0,0,0-.63,2.53,4.26,4.26,0,0,0,.63,2.52A2.2,2.2,0,0,0,214.82,21.45Z"/><path class="cls-1" d="M224.12,14.7a4.44,4.44,0,0,1,1.14-1.44,2.48,2.48,0,0,1,1.57-.53A1.9,1.9,0,0,1,228,13l-.16,1.85a.41.41,0,0,1-.15.26.37.37,0,0,1-.25.08,3.54,3.54,0,0,1-.45-.05,2.81,2.81,0,0,0-.57,0,2,2,0,0,0-.73.12,1.77,1.77,0,0,0-.58.34,2.25,2.25,0,0,0-.45.55,5.5,5.5,0,0,0-.37.73V23.2h-2.47V12.92h1.45a.8.8,0,0,1,.53.14.77.77,0,0,1,.2.48Z"/><path class="cls-1" d="M230.88,18.37a4.73,4.73,0,0,0,.28,1.37,2.72,2.72,0,0,0,.58,1,2.21,2.21,0,0,0,.85.56,3,3,0,0,0,1.1.19,3.54,3.54,0,0,0,1-.14,6.28,6.28,0,0,0,.76-.31l.57-.31a.88.88,0,0,1,.48-.14.5.5,0,0,1,.46.23l.71.9a4.15,4.15,0,0,1-.92.81,5.56,5.56,0,0,1-1.07.52,5.63,5.63,0,0,1-1.13.27,7.29,7.29,0,0,1-1.12.08,5.62,5.62,0,0,1-2-.35,4.47,4.47,0,0,1-1.61-1.06,4.88,4.88,0,0,1-1.07-1.72,6.67,6.67,0,0,1-.39-2.38,5.64,5.64,0,0,1,.34-2,4.71,4.71,0,0,1,1-1.61,4.57,4.57,0,0,1,1.55-1.09,5.06,5.06,0,0,1,2.07-.4,4.91,4.91,0,0,1,1.79.31,4,4,0,0,1,1.42.91,4.18,4.18,0,0,1,.92,1.46,5.34,5.34,0,0,1,.34,2,1.64,1.64,0,0,1-.12.76.49.49,0,0,1-.46.19Zm4.72-1.49a3,3,0,0,0-.14-.91,2.14,2.14,0,0,0-.41-.74,1.82,1.82,0,0,0-.68-.51,2.43,2.43,0,0,0-1-.19,2.3,2.3,0,0,0-1.69.62,2.94,2.94,0,0,0-.78,1.73Z"/><path class="cls-1" d="M246,14.92a.68.68,0,0,1-.21.23.61.61,0,0,1-.28.07,1,1,0,0,1-.39-.1l-.48-.23a5.24,5.24,0,0,0-.61-.23,3.28,3.28,0,0,0-.82-.1,1.87,1.87,0,0,0-1.15.32,1,1,0,0,0-.41.81.77.77,0,0,0,.21.55,2.06,2.06,0,0,0,.57.4,6.28,6.28,0,0,0,.81.3l.92.3c.31.11.61.23.91.37a3,3,0,0,1,.81.52,2.29,2.29,0,0,1,.79,1.82,3.37,3.37,0,0,1-.27,1.36,3,3,0,0,1-.78,1.09,3.81,3.81,0,0,1-1.29.71,5.6,5.6,0,0,1-1.77.25,6,6,0,0,1-1-.09,6.32,6.32,0,0,1-1-.27,5.24,5.24,0,0,1-.86-.4,4.17,4.17,0,0,1-.7-.5l.57-.94a.8.8,0,0,1,.26-.26.74.74,0,0,1,.38-.09.78.78,0,0,1,.44.13l.48.28a4.72,4.72,0,0,0,.63.28,2.78,2.78,0,0,0,.93.13,2.44,2.44,0,0,0,.76-.11,1.7,1.7,0,0,0,.52-.27,1.27,1.27,0,0,0,.3-.4,1.22,1.22,0,0,0,.09-.46.88.88,0,0,0-.21-.6,2.3,2.3,0,0,0-.57-.4,5.93,5.93,0,0,0-.82-.3l-.93-.3a8.18,8.18,0,0,1-.93-.37,3.5,3.5,0,0,1-.81-.55,2.37,2.37,0,0,1-.57-.81,2.73,2.73,0,0,1-.22-1.16,3.16,3.16,0,0,1,.25-1.21,2.86,2.86,0,0,1,.74-1,3.54,3.54,0,0,1,1.21-.68,5.11,5.11,0,0,1,1.68-.26,5.18,5.18,0,0,1,1.93.35,4.45,4.45,0,0,1,1.46.92Z"/></svg>