<svg id="Capa_1" data-name="Capa 1" xmlns="http://www.w3.org/2000/svg" viewBox="0 0 252 32"><defs><style>.cls-1{fill:#2d3277;}.cls-2{fill:#ffd100;}.cls-3{fill:#fff;}</style></defs><path class="cls-1" d="M61.58,11.51a1,1,0,0,1-.25.31.62.62,0,0,1-.34.09.89.89,0,0,1-.46-.15l-.59-.35a5.48,5.48,0,0,0-.8-.35,3.53,3.53,0,0,0-1.09-.16,3.24,3.24,0,0,0-1,.14,2.09,2.09,0,0,0-.71.38,1.55,1.55,0,0,0-.43.58,2,2,0,0,0-.14.74,1.31,1.31,0,0,0,.29.86,2.29,2.29,0,0,0,.76.58,6.75,6.75,0,0,0,1.08.44c.4.13.82.26,1.24.41a10.36,10.36,0,0,1,1.24.5,4.1,4.1,0,0,1,1.08.73,3.37,3.37,0,0,1,.77,1.07,3.8,3.8,0,0,1,.28,1.55,4.94,4.94,0,0,1-.34,1.85,4.11,4.11,0,0,1-1,1.5,4.65,4.65,0,0,1-1.59,1,5.81,5.81,0,0,1-2.15.37,7,7,0,0,1-1.38-.13,7.72,7.72,0,0,1-1.29-.39,6.48,6.48,0,0,1-1.17-.61,5.39,5.39,0,0,1-1-.79l.8-1.3a1,1,0,0,1,.26-.24.69.69,0,0,1,.34-.09,1,1,0,0,1,.55.21l.7.46a5.49,5.49,0,0,0,.94.45,3.58,3.58,0,0,0,1.3.21,2.63,2.63,0,0,0,1.79-.55A2,2,0,0,0,60,19.26a1.5,1.5,0,0,0-.29-.94,2.35,2.35,0,0,0-.76-.61,6.76,6.76,0,0,0-1.08-.42c-.4-.11-.81-.23-1.23-.37a10.8,10.8,0,0,1-1.23-.48,3.91,3.91,0,0,1-1.08-.74,3.37,3.37,0,0,1-.77-1.14,4.34,4.34,0,0,1-.28-1.68,4,4,0,0,1,.31-1.55A4.14,4.14,0,0,1,54.49,10,4.41,4.41,0,0,1,56,9.05a5.38,5.38,0,0,1,2-.36,6.76,6.76,0,0,1,2.38.41,5.28,5.28,0,0,1,1.86,1.13Z"/><path class="cls-1" d="M66.38,18.59A4.73,4.73,0,0,0,66.66,20a2.84,2.84,0,0,0,.59,1,2.4,2.4,0,0,0,.86.57,3.7,3.7,0,0,0,2.15,0,5.13,5.13,0,0,0,.77-.31l.57-.31a.93.93,0,0,1,.48-.14.51.51,0,0,1,.47.23l.71.91a4,4,0,0,1-.93.81,5.6,5.6,0,0,1-2.21.8A8.83,8.83,0,0,1,69,23.6a5.43,5.43,0,0,1-2-.36,4.39,4.39,0,0,1-1.62-1.06,4.81,4.81,0,0,1-1.08-1.73,6.79,6.79,0,0,1-.39-2.4,5.66,5.66,0,0,1,.34-2,5,5,0,0,1,1-1.63,4.65,4.65,0,0,1,1.57-1.09,5.39,5.39,0,0,1,3.89-.09,3.77,3.77,0,0,1,1.42.91A4.27,4.27,0,0,1,73,15.63a5.66,5.66,0,0,1,.34,2,1.61,1.61,0,0,1-.13.76.5.5,0,0,1-.46.2Zm4.75-1.51a3,3,0,0,0-.13-.91,2.1,2.1,0,0,0-.41-.75,1.78,1.78,0,0,0-.69-.51,2.32,2.32,0,0,0-1-.19,2.28,2.28,0,0,0-1.7.62,3,3,0,0,0-.79,1.74Z"/><path class="cls-1" d="M77.77,8.45v15h-2.5v-15Z"/><path class="cls-1" d="M82.78,8.45v15H80.29v-15Z"/><path class="cls-1" d="M87.19,18.59A4.72,4.72,0,0,0,87.48,20a2.68,2.68,0,0,0,.58,1,2.4,2.4,0,0,0,.86.57,3.31,3.31,0,0,0,1.11.18,3.23,3.23,0,0,0,1-.14,4.73,4.73,0,0,0,.77-.31l.58-.31a.88.88,0,0,1,.48-.14.5.5,0,0,1,.46.23l.72.91a4.44,4.44,0,0,1-.93.81,4.88,4.88,0,0,1-1.08.52,5,5,0,0,1-1.14.28,8.68,8.68,0,0,1-1.12.08,5.52,5.52,0,0,1-2-.36,4.39,4.39,0,0,1-1.62-1.06,5.1,5.1,0,0,1-1.08-1.73,6.79,6.79,0,0,1-.39-2.4,5.66,5.66,0,0,1,.34-2,4.82,4.82,0,0,1,1-1.63,4.61,4.61,0,0,1,1.56-1.09,5.16,5.16,0,0,1,2.09-.41,5,5,0,0,1,1.8.32,3.89,3.89,0,0,1,1.43.91,4.4,4.4,0,0,1,.93,1.47,5.45,5.45,0,0,1,.34,2,1.64,1.64,0,0,1-.12.76.51.51,0,0,1-.47.2ZM92,17.08a3,3,0,0,0-.14-.91,2.1,2.1,0,0,0-.41-.75,1.78,1.78,0,0,0-.69-.51,2.62,2.62,0,0,0-2.67.43,3,3,0,0,0-.8,1.74Z"/><path class="cls-1" d="M98.41,14.89a4.42,4.42,0,0,1,1.15-1.46,2.46,2.46,0,0,1,1.57-.53,1.91,1.91,0,0,1,1.15.32l-.16,1.86a.49.49,0,0,1-.14.26.42.42,0,0,1-.26.08,3.54,3.54,0,0,1-.45-.05,2.9,2.9,0,0,0-.58,0,2.13,2.13,0,0,0-.74.12,1.73,1.73,0,0,0-.58.35,2.39,2.39,0,0,0-.45.54,5.67,5.67,0,0,0-.37.74v6.38H96.06V13.09h1.46a.62.62,0,0,1,.74.63Z"/><path class="cls-1" d="M117,21.21v2.24h-8.55V8.86h2.72V21.21Z"/><path class="cls-1" d="M120,18.59a4.73,4.73,0,0,0,.28,1.37,2.69,2.69,0,0,0,.59,1,2.4,2.4,0,0,0,.86.57,3.21,3.21,0,0,0,1.1.18,3.26,3.26,0,0,0,1-.14,5.13,5.13,0,0,0,.77-.31l.57-.31a.93.93,0,0,1,.48-.14.49.49,0,0,1,.46.23l.72.91a4,4,0,0,1-.93.81,5,5,0,0,1-1.07.52,5.27,5.27,0,0,1-1.14.28,9,9,0,0,1-1.13.08,5.52,5.52,0,0,1-2-.36,4.35,4.35,0,0,1-1.61-1.06,4.81,4.81,0,0,1-1.08-1.73,6.78,6.78,0,0,1-.4-2.4,5.66,5.66,0,0,1,.35-2,4.8,4.8,0,0,1,1-1.63,4.65,4.65,0,0,1,1.57-1.09,5.39,5.39,0,0,1,3.89-.09,3.85,3.85,0,0,1,1.42.91,4.11,4.11,0,0,1,.93,1.47,5.45,5.45,0,0,1,.34,2,1.64,1.64,0,0,1-.12.76.5.5,0,0,1-.46.2Zm4.75-1.51a3,3,0,0,0-.13-.91,2.26,2.26,0,0,0-.41-.75,1.86,1.86,0,0,0-.69-.51,2.32,2.32,0,0,0-1-.19,2.27,2.27,0,0,0-1.7.62,3,3,0,0,0-.79,1.74Z"/><path class="cls-1" d="M128.57,14.54a6.14,6.14,0,0,1,4.3-1.64,4.18,4.18,0,0,1,1.62.3,3.35,3.35,0,0,1,1.21.83,3.63,3.63,0,0,1,.76,1.26,5,5,0,0,1,.25,1.62v6.54h-1.13a1.27,1.27,0,0,1-.54-.1.82.82,0,0,1-.31-.43l-.22-.75c-.26.23-.52.44-.76.62a4.37,4.37,0,0,1-.78.45,4.81,4.81,0,0,1-.86.28,5.38,5.38,0,0,1-1,.09,4.21,4.21,0,0,1-1.21-.17,2.8,2.8,0,0,1-1-.53,2.31,2.31,0,0,1-.62-.88,3.09,3.09,0,0,1-.23-1.22,2.67,2.67,0,0,1,.13-.79,2.45,2.45,0,0,1,.43-.74,3.64,3.64,0,0,1,.77-.66,5.32,5.32,0,0,1,1.17-.55,11,11,0,0,1,1.61-.38,17.5,17.5,0,0,1,2.1-.17v-.61a2.3,2.3,0,0,0-.44-1.54,1.66,1.66,0,0,0-1.29-.5,3.17,3.17,0,0,0-1,.14,4.17,4.17,0,0,0-.7.32l-.55.32a1.15,1.15,0,0,1-.55.14.75.75,0,0,1-.45-.14,1.22,1.22,0,0,1-.29-.31ZM134.28,19a13.26,13.26,0,0,0-1.82.19,5,5,0,0,0-1.18.34,1.58,1.58,0,0,0-.63.5,1.23,1.23,0,0,0,.19,1.55,1.69,1.69,0,0,0,1,.29,3.07,3.07,0,0,0,1.33-.28,4.26,4.26,0,0,0,1.09-.84Z"/><path class="cls-1" d="M141.41,14.89a4.42,4.42,0,0,1,1.15-1.46,2.46,2.46,0,0,1,1.57-.53,1.91,1.91,0,0,1,1.15.32l-.16,1.86a.44.44,0,0,1-.15.26.37.37,0,0,1-.25.08,3.54,3.54,0,0,1-.45-.05,2.9,2.9,0,0,0-.58,0,2.13,2.13,0,0,0-.74.12,1.73,1.73,0,0,0-.58.35,2.39,2.39,0,0,0-.45.54,4.64,4.64,0,0,0-.37.74v6.38h-2.5V13.09h1.47a.6.6,0,0,1,.73.63Z"/><path class="cls-1" d="M148.92,14.37a4.57,4.57,0,0,1,.66-.58,4.7,4.7,0,0,1,.73-.46,4.37,4.37,0,0,1,.84-.29,4.17,4.17,0,0,1,1-.11,3.75,3.75,0,0,1,1.5.29,2.86,2.86,0,0,1,1.09.81,3.45,3.45,0,0,1,.67,1.24,5.31,5.31,0,0,1,.23,1.59v6.59h-2.5V16.86a2.24,2.24,0,0,0-.43-1.47,1.61,1.61,0,0,0-1.32-.52,2.63,2.63,0,0,0-1.21.29,4.46,4.46,0,0,0-1.07.8v7.49h-2.5V13.09h1.53a.61.61,0,0,1,.63.46Z"/><path class="cls-1" d="M160.9,10.08a1.54,1.54,0,0,1-.13.6,1.8,1.8,0,0,1-.35.5,2,2,0,0,1-.51.34,1.68,1.68,0,0,1-.63.12,1.58,1.58,0,0,1-.61-.12,1.62,1.62,0,0,1-.84-.84,1.53,1.53,0,0,1-.12-.6,1.64,1.64,0,0,1,.12-.63,1.77,1.77,0,0,1,.34-.5,1.58,1.58,0,0,1,.5-.34,1.42,1.42,0,0,1,.61-.13,1.51,1.51,0,0,1,.63.13,1.75,1.75,0,0,1,.51.34,1.8,1.8,0,0,1,.35.5A1.65,1.65,0,0,1,160.9,10.08Zm-.35,3V23.45h-2.5V13.09Z"/><path class="cls-1" d="M165.43,14.37a6,6,0,0,1,.66-.58,4.35,4.35,0,0,1,.74-.46,4.16,4.16,0,0,1,1.8-.4,3.72,3.72,0,0,1,1.5.29,2.9,2.9,0,0,1,1.1.81,3.59,3.59,0,0,1,.66,1.24,5,5,0,0,1,.23,1.59v6.59h-2.49V16.86a2.24,2.24,0,0,0-.44-1.47,1.6,1.6,0,0,0-1.32-.52,2.66,2.66,0,0,0-1.21.29,4.67,4.67,0,0,0-1.07.8v7.49H163.1V13.09h1.52a.62.62,0,0,1,.64.46Z"/><path class="cls-1" d="M183.57,13.45v.93q0,.43-.54.54l-.93.17a3,3,0,0,1,.22,1.17,3.07,3.07,0,0,1-1.16,2.45,4.16,4.16,0,0,1-1.29.67,5.2,5.2,0,0,1-1.6.24,5.68,5.68,0,0,1-.59,0c-.18,0-.37-.05-.55-.09-.32.2-.49.42-.49.66a.49.49,0,0,0,.29.46,2.3,2.3,0,0,0,.76.21c.32,0,.68.06,1.08.07s.82,0,1.25.07a10.27,10.27,0,0,1,1.24.17,4,4,0,0,1,1.08.4,2.18,2.18,0,0,1,.76.75,2.27,2.27,0,0,1,.29,1.2,2.89,2.89,0,0,1-.34,1.33,3.54,3.54,0,0,1-1,1.15,5.12,5.12,0,0,1-1.58.82,6.91,6.91,0,0,1-2.12.3,8.22,8.22,0,0,1-2-.22,4.8,4.8,0,0,1-1.44-.61,2.54,2.54,0,0,1-.86-.87,2,2,0,0,1-.28-1,1.74,1.74,0,0,1,.44-1.22,3.13,3.13,0,0,1,1.2-.78,1.78,1.78,0,0,1-.65-.56,1.57,1.57,0,0,1-.25-.93,1.36,1.36,0,0,1,.09-.48,2.06,2.06,0,0,1,.25-.49,2.25,2.25,0,0,1,.42-.46,2.59,2.59,0,0,1,.6-.39,3.23,3.23,0,0,1-1.24-1.13,3,3,0,0,1-.45-1.66,3,3,0,0,1,.31-1.38,2.94,2.94,0,0,1,.86-1.06,3.83,3.83,0,0,1,1.3-.68,5.7,5.7,0,0,1,1.64-.23,5.57,5.57,0,0,1,1.25.14,4,4,0,0,1,1.07.4Zm-2.49,10.46a.69.69,0,0,0-.18-.49,1.14,1.14,0,0,0-.49-.3,3.47,3.47,0,0,0-.73-.15c-.28,0-.58-.06-.89-.08l-1,0c-.33,0-.66-.05-1-.09a2.52,2.52,0,0,0-.68.55,1.12,1.12,0,0,0-.25.73,1,1,0,0,0,.13.51,1.15,1.15,0,0,0,.44.4,2.31,2.31,0,0,0,.77.27,5.5,5.5,0,0,0,1.16.1,6,6,0,0,0,1.2-.11,2.85,2.85,0,0,0,.83-.29,1.24,1.24,0,0,0,.48-.45A1.07,1.07,0,0,0,181.08,23.91ZM178.27,18a2.22,2.22,0,0,0,.81-.13,1.8,1.8,0,0,0,.57-.34A1.5,1.5,0,0,0,180,17a1.92,1.92,0,0,0,.12-.69,1.64,1.64,0,0,0-.46-1.21,2.34,2.34,0,0,0-2.76,0,1.64,1.64,0,0,0-.46,1.21,1.87,1.87,0,0,0,.12.68,1.38,1.38,0,0,0,.34.54,1.45,1.45,0,0,0,.58.35A2.2,2.2,0,0,0,178.27,18Z"/><path class="cls-1" d="M200.46,20a.58.58,0,0,1,.4.17l1.07,1.16A5.78,5.78,0,0,1,199.74,23a7.51,7.51,0,0,1-3.11.58,7.34,7.34,0,0,1-2.92-.55,6.39,6.39,0,0,1-2.22-1.55,6.81,6.81,0,0,1-1.41-2.36,9,9,0,0,1-.49-3,8.35,8.35,0,0,1,.53-3,6.9,6.9,0,0,1,1.48-2.36,6.66,6.66,0,0,1,2.27-1.54,7.68,7.68,0,0,1,2.93-.55,7.18,7.18,0,0,1,2.83.53,6.81,6.81,0,0,1,2.11,1.37l-.91,1.26a1.08,1.08,0,0,1-.21.22.58.58,0,0,1-.35.09.64.64,0,0,1-.31-.09l-.35-.21-.45-.28a4.49,4.49,0,0,0-.58-.28,5.79,5.79,0,0,0-.78-.21,5.11,5.11,0,0,0-1-.08,4.53,4.53,0,0,0-1.79.34,4,4,0,0,0-1.4,1,4.71,4.71,0,0,0-.91,1.62,6.88,6.88,0,0,0-.32,2.17,6.45,6.45,0,0,0,.35,2.19,4.77,4.77,0,0,0,.94,1.62,4,4,0,0,0,1.4,1,4.23,4.23,0,0,0,1.74.35,7.46,7.46,0,0,0,1-.06,4,4,0,0,0,.83-.19,3.94,3.94,0,0,0,.72-.34,5,5,0,0,0,.67-.51,1.37,1.37,0,0,1,.21-.15A.64.64,0,0,1,200.46,20Z"/><path class="cls-1" d="M205.11,18.59a4.73,4.73,0,0,0,.28,1.37,2.83,2.83,0,0,0,.58,1,2.44,2.44,0,0,0,.87.57,3.21,3.21,0,0,0,1.1.18,3.26,3.26,0,0,0,1.05-.14,5.13,5.13,0,0,0,.77-.31l.57-.31a.93.93,0,0,1,.48-.14.49.49,0,0,1,.46.23l.72.91a4,4,0,0,1-.93.81,5,5,0,0,1-1.07.52,5.27,5.27,0,0,1-1.14.28,9,9,0,0,1-1.13.08,5.52,5.52,0,0,1-2-.36,4.35,4.35,0,0,1-1.61-1.06A4.81,4.81,0,0,1,203,20.45a6.78,6.78,0,0,1-.4-2.4,5.66,5.66,0,0,1,.35-2,4.8,4.8,0,0,1,1-1.63,4.65,4.65,0,0,1,1.57-1.09,5.39,5.39,0,0,1,3.89-.09,3.85,3.85,0,0,1,1.42.91,4.11,4.11,0,0,1,.93,1.47,5.45,5.45,0,0,1,.34,2,1.64,1.64,0,0,1-.12.76.5.5,0,0,1-.46.2Zm4.75-1.51a3,3,0,0,0-.13-.91,2.26,2.26,0,0,0-.41-.75,1.89,1.89,0,0,0-.7-.51,2.24,2.24,0,0,0-1-.19,2.27,2.27,0,0,0-1.7.62,3,3,0,0,0-.79,1.74Z"/><path class="cls-1" d="M216.3,14.37a6,6,0,0,1,.66-.58,4.35,4.35,0,0,1,.74-.46,4.52,4.52,0,0,1,.83-.29,4.23,4.23,0,0,1,1-.11,3.77,3.77,0,0,1,1.51.29,2.94,2.94,0,0,1,1.09.81,3.61,3.61,0,0,1,.67,1.24,5.32,5.32,0,0,1,.22,1.59v6.59H220.5V16.86a2.24,2.24,0,0,0-.43-1.47,1.62,1.62,0,0,0-1.33-.52,2.66,2.66,0,0,0-1.21.29,4.89,4.89,0,0,0-1.07.8v7.49H214V13.09h1.52a.62.62,0,0,1,.64.46Z"/><path class="cls-1" d="M228.67,23.61a2.73,2.73,0,0,1-2.08-.76,2.94,2.94,0,0,1-.72-2.1V15h-1.06a.47.47,0,0,1-.34-.13.49.49,0,0,1-.14-.39v-1l1.66-.27.53-2.83a.47.47,0,0,1,.19-.31.52.52,0,0,1,.36-.11h1.29v3.26h2.77V15h-2.77v5.61a1.1,1.1,0,0,0,.24.76.83.83,0,0,0,.65.27,1.09,1.09,0,0,0,.39-.05l.27-.12.21-.11a.32.32,0,0,1,.18-.06.24.24,0,0,1,.18.06.8.8,0,0,1,.16.16l.74,1.21a3.55,3.55,0,0,1-1.25.69A4.79,4.79,0,0,1,228.67,23.61Z"/><path class="cls-1" d="M234.56,18.59a5.09,5.09,0,0,0,.28,1.37,2.84,2.84,0,0,0,.59,1,2.4,2.4,0,0,0,.86.57,3.27,3.27,0,0,0,1.11.18,3.23,3.23,0,0,0,1-.14,4.73,4.73,0,0,0,.77-.31l.58-.31a.88.88,0,0,1,.47-.14.51.51,0,0,1,.47.23l.72.91a4.44,4.44,0,0,1-.93.81,5.11,5.11,0,0,1-1.08.52,5,5,0,0,1-1.14.28,8.81,8.81,0,0,1-1.12.08,5.52,5.52,0,0,1-2-.36,4.39,4.39,0,0,1-1.62-1.06,5,5,0,0,1-1.08-1.73,6.79,6.79,0,0,1-.39-2.4,5.66,5.66,0,0,1,.34-2,4.82,4.82,0,0,1,1-1.63A4.51,4.51,0,0,1,235,13.34a5.16,5.16,0,0,1,2.09-.41,5,5,0,0,1,1.8.32,3.89,3.89,0,0,1,1.43.91,4.4,4.4,0,0,1,.93,1.47,5.66,5.66,0,0,1,.34,2,1.64,1.64,0,0,1-.12.76.53.53,0,0,1-.47.2Zm4.76-1.51a3,3,0,0,0-.14-.91,2.1,2.1,0,0,0-.41-.75,1.78,1.78,0,0,0-.69-.51,2.27,2.27,0,0,0-1-.19,2.31,2.31,0,0,0-1.71.62,3.07,3.07,0,0,0-.79,1.74Z"/><path class="cls-1" d="M245.78,14.89a4.42,4.42,0,0,1,1.15-1.46,2.46,2.46,0,0,1,1.57-.53,1.91,1.91,0,0,1,1.15.32l-.16,1.86a.44.44,0,0,1-.15.26.39.39,0,0,1-.25.08,3.54,3.54,0,0,1-.45-.05,2.9,2.9,0,0,0-.58,0,2.13,2.13,0,0,0-.74.12,1.73,1.73,0,0,0-.58.35,2.39,2.39,0,0,0-.45.54,4.64,4.64,0,0,0-.37.74v6.38h-2.5V13.09h1.47a.6.6,0,0,1,.73.63Z"/><path class="cls-1" d="M44.66,15.76c0-8-10-14.55-22.33-14.55S0,7.74,0,15.76v.85C0,25.11,8.74,32,22.33,32s22.33-6.89,22.33-15.39Z"/><path class="cls-2" d="M43.81,15.75c0,7.56-9.61,13.68-21.47,13.68S.87,23.31.87,15.75,10.48,2.07,22.34,2.07,43.81,8.19,43.81,15.75Z"/><path class="cls-3" d="M1.11,20.42a12.71,12.71,0,0,0,2.07,3.26c.46-.87.49-1.34,1-1.52.72-.27,1,.11,3.37.42,3.75.5,5.38.65,11.92.07,4.73-.42,1.55-5.5.47-8.22S17.71,9.3,17.07,7.92A14.71,14.71,0,0,0,14.56,4c-1.08-1.16-3-3-3.49-3.47s-1.48.29-1.83.59S6.82,2.36,7.49,3.27a2.91,2.91,0,0,0,.6.74c.27.2-1.53-.54-1.53.52s1.65.88,2.12,1.08.93.2,1.45.47a4.75,4.75,0,0,0,2,.59c.67,0,.91-.37,1.26.51a11.73,11.73,0,0,1,1.06,5A18.32,18.32,0,0,0,14.91,18S7,14.23.56,15.48C.56,15.48.32,18.7,1.11,20.42Z"/><path class="cls-1" d="M3.28,24.35,2.9,24A13.25,13.25,0,0,1,.76,20.58h0c-.83-1.78-.6-5-.59-5.13l0-.3.29-.05C5.89,14,12.17,16.36,14.32,17.26a22.9,22.9,0,0,1-.22-5.15,10.8,10.8,0,0,0-1-4.59l-.08-.19C12.94,7,12.87,7,12.87,7l-.22,0a2.58,2.58,0,0,1-.47.06A5.18,5.18,0,0,1,10,6.43a3.19,3.19,0,0,0-.75-.26A4,4,0,0,1,8.52,6a2.46,2.46,0,0,0-.46-.08c-.66-.08-1.89-.24-1.89-1.36a.91.91,0,0,1,.32-.75,1.2,1.2,0,0,1,.71-.23l0-.07A1,1,0,0,1,7,2.7C7.13,2,8.05,1.41,8.65,1L9,.83c1.23-1.06,1.94-.91,2.32-.6.57.46,2.47,2.37,3.54,3.52a14.76,14.76,0,0,1,2.58,4l.12.25c.64,1.39,1.72,3.71,2.75,6.28.16.4.36.85.58,1.34.92,2,2.07,4.54,1.16,6.11A3.05,3.05,0,0,1,19.49,23c-6.57.58-8.21.44-12-.07-1-.13-1.64-.28-2.1-.38-.62-.14-.78-.17-1.08-.06s-.24.18-.44.65c-.09.19-.19.42-.33.69Zm-1.81-4.1A14.56,14.56,0,0,0,3.09,23l.05-.1c.21-.49.38-.89.89-1.07a2.4,2.4,0,0,1,1.52,0c.45.1,1.06.24,2,.37,3.73.5,5.35.64,11.83.07a2.3,2.3,0,0,0,1.94-.92c.71-1.21-.35-3.53-1.19-5.39-.23-.49-.44-.95-.6-1.37-1-2.55-2.09-4.86-2.74-6.24l-.11-.25a14.32,14.32,0,0,0-2.45-3.81c-1.12-1.2-3-3-3.45-3.44-.2-.16-.73.08-1.32.59a3.49,3.49,0,0,1-.44.28c-.39.25-1.22.76-1.3,1.14a.23.23,0,0,0,0,.19l0,0a2.45,2.45,0,0,0,.47.62.41.41,0,0,1,.16.51c-.13.3-.44.24-.61.21-.47-.1-.77-.1-.87,0s0,.07,0,.14c0,.33.28.46,1.21.58a2.31,2.31,0,0,1,.67.14,4,4,0,0,0,.55.16,3.81,3.81,0,0,1,.93.32,4.23,4.23,0,0,0,1.84.54,2.1,2.1,0,0,0,.37,0c.49-.09.93-.09,1.28.81l.07.19a11.64,11.64,0,0,1,1,4.93,17.84,17.84,0,0,0,.4,5.64l.36.92-.89-.42c-.08,0-7.62-3.53-13.82-2.48a11.51,11.51,0,0,0,.54,4.43Z"/><path class="cls-1" d="M7.34,4.33a3.8,3.8,0,0,1,1.29.32c.38.19.56.39.93.24l.17-.06c.85-.31.85-.31,1.45.36s.88.66,1.26.45c-.48-.47-1-.94-1.47-1.46s-.55-.81-.09-1.49l-.07-.1c-.15.12-.32.24-.47.37a3.58,3.58,0,0,0-.29.27,1.61,1.61,0,0,1-.31-.39,2.41,2.41,0,0,0-.19-.55l-.09,1-.5,0,.44.19-.05.32c.51-.35.81-.55,1,.32-.38.11-.68.17-1.07.26S8.22,3.61,8,3.42"/><path class="cls-3" d="M43.26,20.35a12.56,12.56,0,0,1-2,3.28c-.46-.87-.5-1.34-1-1.52-.72-.26-1,.12-3.36.45-3.75.53-5.38.68-11.92.14-4.74-.39-1.59-5.48-.53-8.21S26.59,9.35,27.22,8A14.9,14.9,0,0,1,29.7,4C30.78,2.87,32.64,1,33.18.54s1.48.28,1.82.58,2.43,1.21,1.77,2.13a3.22,3.22,0,0,1-.59.75c-.27.19,1.52-.56,1.53.5s-1.64.89-2.11,1.09-.93.21-1.45.48a4.59,4.59,0,0,1-2,.61c-.68,0-.92-.37-1.26.52a11.66,11.66,0,0,0-1,5A18.12,18.12,0,0,1,29.44,18s8.38-3.84,14.84-2.63A19.2,19.2,0,0,1,43.26,20.35Z"/><path class="cls-1" d="M41.11,24.3l-.25-.48c-.14-.27-.24-.5-.33-.69-.21-.47-.27-.58-.45-.65s-.46-.07-1.07.07a19.79,19.79,0,0,1-2.11.4c-3.79.53-5.43.69-12,.14a3,3,0,0,1-2.56-1.28c-.92-1.56.21-4.09,1.12-6.12.21-.48.42-.94.58-1.34,1-2.58,2.07-4.91,2.7-6.3l.12-.25a15,15,0,0,1,2.55-4c1.06-1.15,3-3.07,3.52-3.54.38-.31,1.09-.46,2.33.59l.33.21c.61.36,1.53.92,1.68,1.64a1,1,0,0,1-.17.79l0,.06a1.18,1.18,0,0,1,.72.24.91.91,0,0,1,.32.73c0,1.13-1.22,1.29-1.88,1.38a2.61,2.61,0,0,0-.47.09,4.6,4.6,0,0,1-.67.2,3.71,3.71,0,0,0-.75.26,5.06,5.06,0,0,1-2.23.65A2.71,2.71,0,0,1,31.63,7a1,1,0,0,0-.22,0h0s-.07,0-.19.35l-.07.19a11,11,0,0,0-.93,4.6,21.85,21.85,0,0,1-.2,5.16,41.43,41.43,0,0,1,4.31-1.47c4.87-1.36,8.14-1.22,10-.87l.35.07,0,.35a19,19,0,0,1-1.06,5.15h0a13.11,13.11,0,0,1-2.12,3.39Zm-1.37-2.67a1.7,1.7,0,0,1,.6.11c.52.19.69.58.91,1.07l0,.1a14.94,14.94,0,0,0,1.6-2.72h0a17.33,17.33,0,0,0,1-4.52c-6.22-1-14.17,2.62-14.26,2.66l-.87.4.34-.9a18.05,18.05,0,0,0,.37-5.64,11.59,11.59,0,0,1,1-4.94l.07-.19c.34-.9.78-.91,1.27-.82a2.1,2.1,0,0,0,.37,0A4.18,4.18,0,0,0,34,5.72a4.36,4.36,0,0,1,.94-.32,3.09,3.09,0,0,0,.54-.17,3.36,3.36,0,0,1,.68-.14c.92-.12,1.2-.26,1.2-.59a.18.18,0,0,0,0-.13c-.1-.09-.4-.08-.87,0-.17,0-.48.1-.62-.21a.4.4,0,0,1,.16-.5,2.46,2.46,0,0,0,.47-.63l0,0a.23.23,0,0,0,0-.19c-.08-.38-.91-.89-1.31-1.13a3.49,3.49,0,0,1-.44-.28c-.6-.51-1.13-.74-1.32-.58-.49.4-2.32,2.25-3.44,3.46a14.16,14.16,0,0,0-2.41,3.83l-.12.25c-.63,1.38-1.69,3.7-2.69,6.25-.16.42-.37.89-.59,1.38-.84,1.87-1.88,4.19-1.16,5.4a2.29,2.29,0,0,0,1.94.9c6.49.54,8.11.38,11.83-.14a20.49,20.49,0,0,0,2-.38A4.6,4.6,0,0,1,39.74,21.63Z"/><path class="cls-1" d="M36.93,4.31a3.68,3.68,0,0,0-1.29.33c-.38.19-.56.39-.93.24l-.17-.06c-.85-.31-.85-.31-1.45.37s-.87.67-1.26.46c.48-.48,1-.94,1.47-1.47s.54-.81.08-1.49l.06-.1.48.36c.1.08.19.18.29.27a1.79,1.79,0,0,0,.31-.38,2.32,2.32,0,0,1,.19-.56l.09,1,.5,0-.44.19.06.32c-.52-.35-.82-.54-1,.32.38.12.67.17,1.06.26s1.07-.78,1.26-1"/><path class="cls-1" d="M40.87,8.83a10.2,10.2,0,0,1,2.94,6.92c0,7.56-9.61,13.68-21.47,13.68S.87,23.31.87,15.75a9.45,9.45,0,0,1,1.21-4.56l-1,.07A10.12,10.12,0,0,0,0,15.76v.85C0,25.11,8.74,32,22.33,32s22.33-6.89,22.33-15.39v-.85A10.76,10.76,0,0,0,42,8.83Z"/></svg>