<svg xmlns="http://www.w3.org/2000/svg" width="24" height="24" viewBox="0 0 24 24">
	<style>
		<!-- .fill{fill:red;} -->
	</style>
    <path fill-opacity=".4" class="fill" fill-rule="evenodd" d="M10.497 2.25c4.555 0 8.247 3.692 8.247 8.247 0 2.008-.717 3.848-1.91 5.278L22.061 21 21 22.06l-5.225-5.226c-1.43 1.193-3.27 1.91-5.278 1.91-4.555 0-8.247-3.692-8.247-8.247S5.942 2.25 10.497 2.25zm0 1.5c-3.726 0-6.747 3.02-6.747 6.747 0 3.726 3.02 6.747 6.747 6.747 3.726 0 6.747-3.02 6.747-6.747 0-3.726-3.02-6.747-6.747-6.747z"/>
</svg>
