<svg xmlns="http://www.w3.org/2000/svg" width="24" height="24" viewBox="0 0 24 24">
    <path fill-opacity=".8" d="M18 2.25c2.071 0 3.75 1.679 3.75 3.75 0 2.071-1.679 3.75-3.75 3.75-1.198 0-2.265-.562-2.951-1.436l-5.427 2.714c.083.31.127.636.127.972 0 .337-.044.663-.128.973l5.425 2.712c.686-.874 1.753-1.435 2.95-1.435 2.071 0 3.75 1.679 3.75 3.75 0 2.071-1.679 3.75-3.75 3.75-2.071 0-3.75-1.679-3.75-3.75 0-.337.044-.663.128-.973L8.95 14.314C8.264 15.188 7.197 15.75 6 15.75c-2.071 0-3.75-1.679-3.75-3.75 0-2.071 1.679-3.75 3.75-3.75 1.198 0 2.265.562 2.951 1.436l5.428-2.713c-.084-.31-.128-.636-.128-.973 0-2.071 1.679-3.75 3.75-3.75zm-.004 13.5c-1.243 0-2.25 1.007-2.25 2.25s1.007 2.25 2.25 2.25 2.25-1.007 2.25-2.25-1.007-2.25-2.25-2.25zm-11.997-6c-1.243 0-2.25 1.007-2.25 2.25s1.007 2.25 2.25 2.25 2.25-1.007 2.25-2.25-1.007-2.25-2.25-2.25zM18 3.75c-1.243 0-2.25 1.007-2.25 2.25S16.757 8.25 18 8.25 20.25 7.243 20.25 6 19.243 3.75 18 3.75z"/>
</svg>
