<?xml version="1.0" encoding="utf-8"?>
<!-- Generator: Adobe Illustrator 23.0.4, SVG Export Plug-In . SVG Version: 6.00 Build 0)  -->
<svg version="1.1" id="Layer_1" xmlns="http://www.w3.org/2000/svg" xmlns:xlink="http://www.w3.org/1999/xlink" x="0px" y="0px"
	 viewBox="0 0 200 200" style="enable-background:new 0 0 200 200;" xml:space="preserve">
<style type="text/css">
	.st0{fill:#0E4C63;}
</style>
<g transform="rotate(0 50 50)">
	<path class="st0" d="M93.1-0.9h11.4c3.3,0,6,2.8,6,6.3v44.7c0,3.5-2.7,6.3-6,6.3H93.1c-3.3,0-6-2.8-6-6.3V5.4
		C87.1,1.9,89.8-0.9,93.1-0.9z	">
<animate  accumulate="none" additive="replace" attributeName="opacity" begin="-0.8888888888888888s" calcMode="linear" dur="1s" fill="remove" keyTimes="0;1" repeatCount="indefinite" restart="always" values="1;0">
			</animate>
	</path>
</g>
<g transform="rotate(40 50 50)">
	<path class="st0" d="M112.3-42.5l11.6,0.3c3.4,0.1,6.2,2.9,6.3,6.3l1,43.8c0.1,3.4-2.6,6.1-6,6l-11.6-0.3c-3.4-0.1-6.2-2.9-6.3-6.3
		l-1-43.8C106.2-39.9,108.9-42.6,112.3-42.5z	">
<animate  accumulate="none" additive="replace" attributeName="opacity" begin="-0.7777777777777778s" calcMode="linear" dur="1s" fill="remove" keyTimes="0;1" repeatCount="indefinite" restart="always" values="1;0">
			</animate>
	</path>
</g>
<g transform="rotate(80 50 50)">
	<path class="st0" d="M102.3-86.9l11.9,0.1c3.5,0,6.3,2.7,6.3,6.1l0.4,42.7c0,3.3-2.8,6-6.2,6l-11.9-0.1c-3.5,0-6.3-2.7-6.3-6.1
		L96.1-81C96.1-84.3,98.9-87,102.3-86.9z	">
<animate  accumulate="none" additive="replace" attributeName="opacity" begin="-0.6666666666666666s" calcMode="linear" dur="1s" fill="remove" keyTimes="0;1" repeatCount="indefinite" restart="always" values="1;0">
			</animate>
	</path>
</g>
<g transform="rotate(120 50 50)">
	<path class="st0" d="M66.3-116.7l11.8-0.2c3.4-0.1,6.2,2.6,6.1,6l-0.9,43.1c-0.1,3.4-2.9,6.1-6.4,6.2l-11.8,0.2
		c-3.4,0.1-6.2-2.6-6.1-6l0.9-43.1C60-113.8,62.8-116.6,66.3-116.7z	">
<animate  accumulate="none" additive="replace" attributeName="opacity" begin="-0.5555555555555556s" calcMode="linear" dur="1s" fill="remove" keyTimes="0;1" repeatCount="indefinite" restart="always" values="1;0">
			</animate>
	</path>
</g>
<g transform="rotate(160 50 50)">
	<path class="st0" d="M17.5-116.7l11.5-0.2c3.3-0.1,6,2.7,6,6.2l-0.7,44.5c-0.1,3.5-2.8,6.3-6.1,6.4l-11.5,0.2c-3.3,0.1-6-2.7-6-6.2
		l0.7-44.5C11.4-113.8,14.1-116.7,17.5-116.7z	">
<animate  accumulate="none" additive="replace" attributeName="opacity" begin="-0.4444444444444444s" calcMode="linear" dur="1s" fill="remove" keyTimes="0;1" repeatCount="indefinite" restart="always" values="1;0">
			</animate>
	</path>
</g>
<g transform="rotate(200 50 50)">
	<path class="st0" d="M-20.7-83.5l11.5,0.2c3.3,0.1,6.1,2.9,6.1,6.4l0.7,44.5c0.1,3.5-2.6,6.2-6,6.2l-11.5-0.2
		c-3.3-0.1-6.1-2.9-6.1-6.4l-0.7-44.5C-26.7-80.8-24.1-83.5-20.7-83.5z	">
<animate  accumulate="none" additive="replace" attributeName="opacity" begin="-0.3333333333333333s" calcMode="linear" dur="1s" fill="remove" keyTimes="0;1" repeatCount="indefinite" restart="always" values="1;0">
			</animate>
	</path>
</g>
<g transform="rotate(240 50 50)">
	<path class="st0" d="M-26.9-32.3l11.8,0.2c3.4,0.1,6.3,2.9,6.4,6.2l0.9,43.1c0.1,3.4-2.7,6-6.1,6L-25.8,23
		c-3.4-0.1-6.3-2.9-6.4-6.2L-33-26.3C-33.1-29.7-30.4-32.4-26.9-32.3z	">
<animate  accumulate="none" additive="replace" attributeName="opacity" begin="-0.2222222222222222s" calcMode="linear" dur="1s" fill="remove" keyTimes="0;1" repeatCount="indefinite" restart="always" values="1;0">
			</animate>
	</path>
</g>
<g transform="rotate(280 50 50)">
	<path class="st0" d="M2.7,9.4l11.9-0.1c3.5,0,6.3,2.6,6.2,6l-0.4,42.7c0,3.3-2.9,6-6.3,6.1L2.2,64.1c-3.5,0-6.3-2.6-6.2-6l0.4-42.7
		C-3.6,12.1-0.8,9.4,2.7,9.4z	">
<animate  accumulate="none" additive="replace" attributeName="opacity" begin="-0.1111111111111111s" calcMode="linear" dur="1s" fill="remove" keyTimes="0;1" repeatCount="indefinite" restart="always" values="1;0">
			</animate>
	</path>
</g>
<g transform="rotate(320 50 50)">
	<path class="st0" d="M50.9,20.6l11.6-0.3c3.4-0.1,6.1,2.6,6,6l-1,43.8c-0.1,3.4-2.9,6.2-6.3,6.3l-11.6,0.3c-3.4,0.1-6.1-2.6-6-6
		l1-43.8C44.7,23.5,47.5,20.6,50.9,20.6z	">
<animate  accumulate="none" additive="replace" attributeName="opacity" begin="0s" calcMode="linear" dur="1s" fill="remove" keyTimes="0;1" repeatCount="indefinite" restart="always" values="1;0">
			</animate>
	</path>
</g>
</svg>
