<svg id="clock-circular-outline" xmlns="http://www.w3.org/2000/svg" width="18.765" height="18.765" viewBox="0 0 18.765 18.765">
  <g id="Grupo_59" data-name="Grupo 59">
    <path id="Trazado_1004" data-name="Trazado 1004" d="M9.383,0a9.383,9.383,0,1,0,9.383,9.383A9.393,9.393,0,0,0,9.383,0Zm0,16.769a7.386,7.386,0,1,1,7.386-7.386A7.395,7.395,0,0,1,9.383,16.769Z" fill="#feb833"/>
    <path id="Trazado_1005" data-name="Trazado 1005" d="M49.828,22.672H45.611V17.6a.773.773,0,1,0-1.545,0v5.842a.773.773,0,0,0,.773.773h4.989a.773.773,0,0,0,0-1.545Z" transform="translate(-35.555 -13.58)" fill="#feb833"/>
  </g>
</svg>
