<svg id="Grupo_86" data-name="Grupo 86" xmlns="http://www.w3.org/2000/svg" width="20.737" height="15.842" viewBox="0 0 20.737 15.842">
  <g id="Grupo_40" data-name="Grupo 40" transform="translate(0 0)">
    <path id="Trazado_982" data-name="Trazado 982" d="M35.573,35.049h0a.731.731,0,0,0-.52.215.739.739,0,0,0-.218.527V46.918a.745.745,0,0,0,.743.742,9.18,9.18,0,0,1,6.618,2.453V38.468a.711.711,0,0,0-.1-.376C40.453,35.454,37.3,35.053,35.573,35.049Z" transform="translate(-32.401 -35.049)" fill="#feb833"/>
    <path id="Trazado_983" data-name="Trazado 983" d="M164.111,46.917V35.79a.739.739,0,0,0-.218-.527.731.731,0,0,0-.52-.215h0c-1.731,0-4.88.405-6.518,3.044a.711.711,0,0,0-.1.376V50.112a9.18,9.18,0,0,1,6.617-2.453A.745.745,0,0,0,164.111,46.917Z" transform="translate(-145.806 -35.048)" fill="#feb833"/>
    <path id="Trazado_984" data-name="Trazado 984" d="M179.5,71.8h-.538v9.3A1.9,1.9,0,0,1,177.074,83a8.231,8.231,0,0,0-5.592,1.909,17.865,17.865,0,0,1,7.856.152.742.742,0,0,0,.908-.723V72.543A.743.743,0,0,0,179.5,71.8Z" transform="translate(-159.509 -69.235)" fill="#feb833"/>
    <path id="Trazado_985" data-name="Trazado 985" d="M1.28,81.1V71.8H.742A.743.743,0,0,0,0,72.543V84.335a.742.742,0,0,0,.908.723,17.864,17.864,0,0,1,7.856-.152A8.231,8.231,0,0,0,3.172,83,1.9,1.9,0,0,1,1.28,81.1Z" transform="translate(0 -69.235)" fill="#feb833"/>
  </g>
</svg>
