<?xml version="1.0" encoding="utf-8"?>
<!-- Generator: Adobe Illustrator 22.0.1, SVG Export Plug-In . SVG Version: 6.00 Build 0)  -->
<svg version="1.1" id="Grupo_86" xmlns="http://www.w3.org/2000/svg" xmlns:xlink="http://www.w3.org/1999/xlink" x="0px" y="0px"
	 viewBox="0 0 20.7 15.8" style="enable-background:new 0 0 20.7 15.8;" xml:space="preserve">
<style type="text/css">
	.st0{fill:#A8A8A8;}
</style>
<g id="Grupo_40" transform="translate(0 0)">
	<path id="Trazado_982" class="st0" d="M3.2,0L3.2,0C3,0,2.8,0.1,2.7,0.2C2.5,0.4,2.4,0.5,2.4,0.7v11.1c0,0.4,0.3,0.7,0.7,0.7
		c2.4-0.1,4.8,0.8,6.6,2.5V3.4c0-0.1,0-0.3-0.1-0.4C8.1,0.4,4.9,0,3.2,0z"/>
	<path id="Trazado_983" class="st0" d="M18.3,11.9V0.7c0-0.2-0.1-0.4-0.2-0.5C17.9,0.1,17.8,0,17.6,0l0,0c-1.7,0-4.9,0.4-6.5,3
		c-0.1,0.1-0.1,0.2-0.1,0.4v11.6c1.8-1.7,4.2-2.5,6.6-2.5C18,12.6,18.3,12.3,18.3,11.9z"/>
	<path id="Trazado_984" class="st0" d="M20,2.6h-0.5v9.3c0,1-0.8,1.9-1.9,1.9c-2-0.1-4,0.6-5.6,1.9c2.6-0.5,5.3-0.5,7.9,0.2
		c0.4,0.1,0.8-0.2,0.9-0.6c0-0.1,0-0.1,0-0.2V3.3C20.7,2.9,20.4,2.6,20,2.6C20,2.6,20,2.6,20,2.6z"/>
	<path id="Trazado_985" class="st0" d="M1.3,11.9V2.6H0.7C0.3,2.6,0,2.9,0,3.3v11.8c0,0.4,0.3,0.7,0.7,0.7c0.1,0,0.1,0,0.2,0
		c2.6-0.6,5.3-0.7,7.9-0.2c-1.6-1.3-3.6-2-5.6-1.9C2.1,13.8,1.3,12.9,1.3,11.9z"/>
</g>
</svg>
