<?xml version="1.0" encoding="utf-8"?>
<!-- Generator: Adobe Illustrator 22.0.1, SVG Export Plug-In . SVG Version: 6.00 Build 0)  -->
<svg version="1.1" id="Layer_1" xmlns="http://www.w3.org/2000/svg" xmlns:xlink="http://www.w3.org/1999/xlink" x="0px" y="0px"
	 viewBox="0 0 151.8 35.1" style="enable-background:new 0 0 151.8 35.1;" xml:space="preserve">
<g>
	<path d="M14,23.6c0.6-0.4,1.1-0.8,1.7-1.2c4.8-3.5,7.8-6.8,7.8-12.2c0-3.1-1.1-5.7-3.1-7.6s-5-2.8-8.5-2.8c-4.6,0-8.8,2.5-10.7,6.3
		c-0.3,0.6,0,1.4,0.6,1.7l1.5,0.9C3.5,8.9,3.8,9,4,9c0.1,0,0.3,0,0.4-0.1c0.3,0,0.6-0.3,0.8-0.6c0.9-1.9,3.1-3.9,6.6-3.9
		c2.1,0,7.1,0.9,7.1,6c0,3.6-2.4,5.8-6.1,8.8c-0.8,0.6-1.7,1.3-2.7,2c-4.2,3.1-9.4,7-10,12.4c0,0.4,0.1,0.8,0.3,1
		C0.7,34.8,1,35,1.4,35h20.3c0.8,0,1.4-0.6,1.4-1.4v-1.7c0-0.7-0.7-1.4-1.4-1.4H6.1C7.9,28,11.1,25.8,14,23.6"/>
	<path d="M86,0.4c-0.3-0.3-0.7-0.5-1.1-0.5H83c-0.6,0-1.2,0.4-1.3,1l-5.8,24.7L69.7,1.2c0-0.9-0.6-1.3-1.2-1.3h-2
		c-0.6,0-1.2,0.4-1.3,1L59,25.3L53.2,0.9c-0.1-0.6-0.7-1-1.3-1H50c-0.4,0-0.8,0.2-1.1,0.5s-0.4,0.7-0.3,1.2L56.2,34
		c0.1,0.6,0.7,1,1.3,1h2.4c0.6,0,1.2-0.4,1.3-1l6.1-23l6.2,23c0.2,0.6,0.7,1,1.3,1h2.4c0.6,0,1.2-0.4,1.3-1l7.6-32.4
		C86.4,1.2,86.3,0.7,86,0.4"/>
	<path d="M95.3,11.1c-3.6,0-6.8,1.7-8.4,4.5c-0.3,0.6-0.2,1.3,0.4,1.8l1.3,1c0.2,0.2,0.5,0.3,0.8,0.3c0.1,0,0.2,0,0.3,0
		c0.4-0.1,0.7-0.3,0.9-0.6c1.2-2,2.9-2.4,4.3-2.4c2,0,4.5,0.9,4.5,3.6v0.9c-1.3-0.3-2.6-0.5-3.9-0.5c-5,0-10,2.6-10,8.4
		c0,4.4,3,7.2,7.7,7.2c2.8,0,9.2,0,9.2,0l0,0c0.4,0,0.7-0.1,1-0.4c0.3-0.3,0.4-0.6,0.4-1v-0.6V19C103.9,13.1,99.2,11.1,95.3,11.1
		 M93.5,30.5c-0.8,0-3.4,0.1-3.4-2.9c0-2.7,2.9-4,5.6-4c1.4,0,2.7,0.3,3.7,0.8v6.1H93.5L93.5,30.5z"/>
	<path d="M132.7,30.5h-2.6c-0.9,0-1.7-0.8-1.7-2.3V15.5h3.8c0.8,0,1.4-0.6,1.4-1.4v-1.8c0-0.7-0.6-1.4-1.4-1.4h-3.8V1.2
		c0-0.7-0.5-1.3-1.3-1.3h-1.9c-0.8,0-1.5,0.5-1.5,1.3v9.9h-9.3V1.2c0-0.7-0.6-1.3-1.4-1.3h-1.9c-0.8,0-1.4,0.5-1.4,1.3v9.9h-2.3
		c-0.8,0-1.4,0.6-1.4,1.4v1.8c0,0.8,0.6,1.4,1.4,1.4h2.3v12.2c0,4.2,2.5,7.1,6.1,7.1h2.9c0.4,0,0.7-0.1,1-0.4c0.3-0.3,0.4-0.6,0.4-1
		v-1.7c0-0.7-0.6-1.4-1.4-1.4h-2.6c-1.2,0-1.7-1-1.7-2.6V15.5h9.3v12.4c0,4.2,2.5,7.1,6.1,7.1h2.9c0.4,0,0.7-0.1,1-0.4
		c0.3-0.3,0.4-0.6,0.4-1v-1.7C134,31.1,133.4,30.5,132.7,30.5"/>
	<path d="M37.1,11.1c-1.9,0-5.5,0-6.7,0V4.4h15.1c0.8,0,1.4-0.6,1.4-1.4V1.3c0-0.7-0.6-1.4-1.4-1.4H27.1c-0.8,0-1.4,0.6-1.4,1.4
		v12.9c0,0.7,0.6,1.4,1.4,1.4h9.6c4.7,0,7.6,2.6,7.6,7.1c0,4.9-2.9,7.7-7.8,7.8H35c-0.8,0-1.3,0.7-1.3,1.4v1.8
		c0,0.7,0.6,1.4,1.4,1.4h1.7c7.5-0.2,12.2-5,12.2-12.4c0-3.4-1.1-6.3-3.2-8.4C43.7,12.2,40.7,11.1,37.1,11.1"/>
	<path d="M144.2,20.3c-2.4-0.9-3.4-1.6-3.7-2.2c-0.2-0.4-0.2-0.7-0.2-0.8c0-1.1,1.7-1.8,3.3-1.8l0,0h5.7c0.4,0,0.7-0.1,1-0.4
		c0.3-0.3,0.5-0.6,0.5-0.9v-1.8c0-0.7-0.6-1.4-1.4-1.4h-5.7l0,0c-4.7,0.1-7.9,2.2-7.9,6.3l0,0v0.1c0.1,3.1,2.1,5.3,6.2,6.7
		c4.9,1.7,5.3,2.8,5.3,3.9c0,1.8-1.2,2.4-3.4,2.4l0,0h-5.7c-0.4,0-0.7,0.1-1,0.4s-0.4,0.6-0.4,1v1.8c0,0.7,0.6,1.4,1.4,1.4h5.6l0,0
		c4.7-0.1,7.9-2.8,7.9-7C151.9,24.5,149.7,22.3,144.2,20.3"/>
</g>
</svg>
