<svg xmlns="http://www.w3.org/2000/svg" width="11.325" height="13.842" viewBox="0 0 11.325 13.842">
  <g id="padlock" transform="translate(0)">
    <path id="Trazado_1021" data-name="Trazado 1021" d="M47.6,6.567a.91.91,0,0,0-.669-.275h-.314V4.4a4.238,4.238,0,0,0-1.3-3.106,4.367,4.367,0,0,0-6.213,0,4.238,4.238,0,0,0-1.3,3.107V6.292h-.315a.94.94,0,0,0-.944.944V12.9a.94.94,0,0,0,.944.944h9.438a.94.94,0,0,0,.944-.944V7.236A.91.91,0,0,0,47.6,6.567Zm-2.87-.275H39.694V4.4a2.425,2.425,0,0,1,.737-1.779,2.516,2.516,0,0,1,3.559,0A2.425,2.425,0,0,1,44.727,4.4Z" transform="translate(-36.548 0)" fill="#d5cece"/>
  </g>
</svg>
