<svg xmlns="http://www.w3.org/2000/svg" width="18.849" height="18.849" viewBox="0 0 18.849 18.849">
  <g id="question-mark" transform="translate(-0.001 0)">
    <path id="Trazado_1003" data-name="Trazado 1003" d="M9.3,0a9.425,9.425,0,1,0,9.549,9.3A9.425,9.425,0,0,0,9.3,0Zm-.028,15.16H9.219a1.372,1.372,0,0,1,.032-2.743H9.3a1.372,1.372,0,1,1-.027,2.743ZM12.643,8.47a6.231,6.231,0,0,1-1.125,1.007l-.575.4a1.564,1.564,0,0,0-.578.7,1.456,1.456,0,0,0-.089.59v.092h-2.2l.006-.186A2.4,2.4,0,0,1,8.448,9.49a9.326,9.326,0,0,1,1.639-1.318,1.729,1.729,0,0,0,.388-.4,1.4,1.4,0,0,0,.333-.814,1.586,1.586,0,0,0-.3-.938,1.255,1.255,0,0,0-1.086-.408,1.185,1.185,0,0,0-1.1.508,2.039,2.039,0,0,0-.333,1.1v.094H5.724l0-.1A3.441,3.441,0,0,1,7.2,4.247a3.873,3.873,0,0,1,2.13-.559,4.6,4.6,0,0,1,2.748.791,2.744,2.744,0,0,1,1.112,2.368A2.709,2.709,0,0,1,12.643,8.47Z" transform="translate(0 0)" fill="#feb833"/>
  </g>
</svg>
